<svg width="427" height="292" viewBox="0 0 427 292" fill="none" xmlns="http://www.w3.org/2000/svg">
<path d="M374.691 139.131C374.183 139.47 374.014 139.893 374.183 140.401C374.353 140.74 374.776 140.909 375.453 140.909H422.698C423.884 140.909 424.815 141.248 425.493 141.925C426.17 142.603 426.509 143.534 426.509 144.719V177.994C426.509 179.179 426.17 180.111 425.493 180.788C424.815 181.465 423.884 181.804 422.698 181.804H319.826C318.641 181.804 317.709 181.465 317.032 180.788C316.355 180.111 316.016 179.179 316.016 177.994V143.703C316.016 141.841 316.609 140.232 317.794 138.877L333.288 121.605C341.755 112.291 348.19 105.01 352.593 99.7602C357.165 94.5108 361.229 89.2613 364.785 84.0119C372.744 72.4969 376.723 62.3367 376.723 53.5312C376.723 46.419 374.522 42.8629 370.119 42.8629C368.087 42.8629 366.394 43.7096 365.039 45.403C363.854 46.927 363.261 49.0438 363.261 51.7531V62.4214C363.261 63.6067 362.922 64.5381 362.245 65.2155C361.568 65.8928 360.636 66.2315 359.451 66.2315H318.81C317.625 66.2315 316.693 65.8928 316.016 65.2155C315.339 64.5381 315 63.6067 315 62.4214V49.7211C315.677 40.2382 318.471 31.9407 323.382 24.8285C328.462 17.547 335.236 11.9589 343.703 8.06415C352.169 4.00006 361.737 1.96802 372.405 1.96802C382.735 1.96802 391.879 4.1694 399.838 8.57216C407.797 12.8056 413.978 18.9017 418.38 26.8606C422.783 34.6501 424.985 43.625 424.985 53.7852C424.985 63.2681 423.63 71.7349 420.92 79.1858C418.211 86.4673 413.724 94.2568 407.458 102.554C401.87 110.005 395.266 117.71 387.646 125.669C380.195 133.458 375.877 137.946 374.691 139.131Z" fill="black"/>
<path d="M208.812 4.76203C210.337 4.25401 211.861 4 213.385 4H255.042C256.227 4 257.158 4.33867 257.836 5.01602C258.513 5.69337 258.852 6.62473 258.852 7.81009V177.994C258.852 179.179 258.513 180.111 257.836 180.788C257.158 181.465 256.227 181.804 255.042 181.804H214.909C213.723 181.804 212.792 181.465 212.115 180.788C211.437 180.111 211.099 179.179 211.099 177.994V48.959C211.099 47.943 210.591 47.435 209.574 47.435H192.81C191.625 47.435 190.693 47.0963 190.016 46.419C189.339 45.7416 189 44.8103 189 43.6249V14.1602C189 11.9589 190.016 10.5195 192.048 9.84213L208.812 4.76203Z" fill="black"/>
<path d="M307.042 2C308.624 2.00009 310.113 2.4644 311.25 3.60156C312.387 4.73887 312.852 6.22825 312.852 7.81055V177.994C312.852 179.576 312.387 181.065 311.25 182.202C310.113 183.339 308.624 183.804 307.042 183.804H266.908C265.326 183.804 263.837 183.339 262.7 182.202C261.563 181.065 261.099 179.576 261.099 177.994V49.4346H244.811C243.228 49.4346 241.739 48.9703 240.602 47.833C239.464 46.6958 239 45.2072 239 43.625V14.1602C239 12.7504 239.328 11.4094 240.128 10.2764C240.931 9.13855 242.085 8.38815 243.416 7.94434L243.441 7.93652L243.468 7.92773L260.232 2.84766V2.84863C261.932 2.28771 263.652 2 265.385 2H307.042Z" fill="black" stroke="white" stroke-width="4"/>
<path d="M286.734 141.968C280.748 141.968 275.947 140.569 272.331 137.77C268.777 134.972 267 131.271 267 126.67V126.39C267 125.954 267.125 125.612 267.374 125.364C267.624 125.115 267.966 124.99 268.403 124.99H282.432C282.868 124.99 283.211 125.115 283.46 125.364C283.71 125.55 283.835 125.83 283.835 126.203C283.835 127.136 284.115 127.851 284.676 128.349C285.237 128.846 285.861 129.095 286.547 129.095C287.108 129.095 287.544 128.939 287.856 128.628C288.168 128.255 288.324 127.82 288.324 127.322C288.324 126.39 287.856 125.706 286.921 125.27C285.986 124.773 284.427 124.213 282.245 123.591C281.496 123.405 280.624 123.156 279.626 122.845C276.321 121.788 273.484 120.077 271.115 117.714C268.808 115.289 267.655 111.993 267.655 107.826C267.655 102.975 269.338 99.1198 272.705 96.2591C276.072 93.3984 280.499 91.968 285.986 91.968C291.722 91.968 296.305 93.5227 299.734 96.6322C303.163 99.7416 304.878 103.846 304.878 108.946C304.878 109.194 304.753 109.412 304.504 109.599C304.254 109.785 303.911 109.878 303.475 109.878H289.914C289.477 109.878 289.134 109.754 288.885 109.505C288.635 109.257 288.511 108.915 288.511 108.479V107.92C288.511 107.173 288.293 106.582 287.856 106.147C287.482 105.712 287.014 105.494 286.453 105.494C285.83 105.494 285.331 105.743 284.957 106.24C284.645 106.738 284.489 107.298 284.489 107.92C284.489 109.163 285.082 110.127 286.266 110.811C287.513 111.495 289.103 112.117 291.036 112.677C295.525 113.983 299.141 115.662 301.885 117.714C304.628 119.767 306 122.907 306 127.136C306 131.738 304.223 135.376 300.669 138.05C297.177 140.662 292.532 141.968 286.734 141.968Z" fill="white"/>
<path d="M237.095 93.5745C237.095 93.1326 237.222 92.7854 237.476 92.5328C237.73 92.2803 238.079 92.1541 238.524 92.1541H253.571C254.016 92.1541 254.365 92.2803 254.619 92.5328C254.873 92.7854 255 93.1326 255 93.5745V139.976C255 140.418 254.873 140.765 254.619 141.018C254.365 141.27 254.016 141.396 253.571 141.396H238.524C238.079 141.396 237.73 141.27 237.476 141.018C237.222 140.765 237.095 140.418 237.095 139.976V139.597C237.095 139.345 237.032 139.187 236.905 139.124C236.778 139.061 236.619 139.124 236.429 139.313C235.476 140.45 234.333 141.207 233 141.586C231.73 141.965 230.238 142.154 228.524 142.154C224.714 142.154 221.508 140.986 218.905 138.65C216.302 136.314 215 132.684 215 127.76V93.5745C215 93.1326 215.127 92.7854 215.381 92.5328C215.635 92.2803 215.984 92.1541 216.429 92.1541H231.476C231.921 92.1541 232.27 92.2803 232.524 92.5328C232.778 92.7854 232.905 93.1326 232.905 93.5745V123.878C232.905 125.898 233.571 126.908 234.905 126.908C236.365 126.908 237.095 125.898 237.095 123.878V93.5745Z" fill="white"/>
<path d="M191.974 90.1541C196.888 90.1541 200.437 91.735 202.621 94.897C204.874 98.0589 206 102.596 206 108.507V127.066C206 133.184 204.874 137.79 202.621 140.883C200.369 143.907 196.82 145.42 191.974 145.42C187.947 145.42 184.944 143.873 182.964 140.78C182.828 140.505 182.657 140.402 182.452 140.47C182.316 140.539 182.248 140.711 182.248 140.986V161.607C182.248 162.089 182.111 162.467 181.838 162.742C181.565 163.017 181.19 163.154 180.712 163.154H164.536C164.058 163.154 163.683 163.017 163.41 162.742C163.137 162.467 163 162.089 163 161.607V92.5255C163 92.0444 163.137 91.6663 163.41 91.3913C163.683 91.1164 164.058 90.9789 164.536 90.9789H180.712C181.19 90.9789 181.565 91.1164 181.838 91.3913C182.111 91.6663 182.248 92.0444 182.248 92.5255V94.5877C182.248 94.7251 182.316 94.7939 182.452 94.7939C182.725 94.7939 183.135 94.4502 183.681 93.7628C185.66 91.357 188.425 90.1541 191.974 90.1541ZM186.752 110.054C186.752 109.091 186.548 108.301 186.138 107.682C185.797 107.064 185.285 106.754 184.602 106.754C183.92 106.754 183.34 107.064 182.862 107.682C182.452 108.301 182.248 109.091 182.248 110.054V125.52C182.248 126.482 182.452 127.273 182.862 127.891C183.34 128.51 183.92 128.819 184.602 128.819C185.285 128.819 185.797 128.51 186.138 127.891C186.548 127.273 186.752 126.482 186.752 125.52V110.054Z" fill="black"/>
<path d="M145.626 90.1541C155.209 90.1541 160 96.2904 160 108.563V142.62C160 143.097 159.865 143.472 159.595 143.745C159.325 144.018 158.954 144.154 158.482 144.154H142.488C142.015 144.154 141.644 144.018 141.374 143.745C141.104 143.472 140.969 143.097 140.969 142.62V109.893C140.969 107.711 140.261 106.62 138.844 106.62C137.291 106.62 136.515 107.711 136.515 109.893V142.62C136.515 143.097 136.38 143.472 136.11 143.745C135.84 144.018 135.469 144.154 134.997 144.154H119.003C118.531 144.154 118.16 144.018 117.89 143.745C117.62 143.472 117.485 143.097 117.485 142.62V109.893C117.485 107.711 116.776 106.62 115.359 106.62C113.807 106.62 113.031 107.711 113.031 109.893V142.62C113.031 143.097 112.896 143.472 112.626 143.745C112.356 144.018 111.985 144.154 111.512 144.154H95.5184C95.046 144.154 94.6749 144.018 94.4049 143.745C94.135 143.472 94 143.097 94 142.62V92.5063C94 92.029 94.135 91.654 94.4049 91.3813C94.6749 91.1086 95.046 90.9722 95.5184 90.9722H111.512C112.525 90.9722 113.031 91.4495 113.031 92.404V92.8131C113.031 93.0859 113.098 93.2563 113.233 93.3245C113.368 93.3927 113.537 93.3245 113.739 93.12C115.966 91.1427 118.767 90.1541 122.141 90.1541C127.54 90.1541 131.387 92.0972 133.681 95.9836C133.816 96.12 133.917 96.1881 133.985 96.1881C134.255 96.1881 134.592 95.8813 134.997 95.2677C137.494 91.8586 141.037 90.1541 145.626 90.1541Z" fill="black"/>
<path d="M68.6545 90.1541C73.048 90.1541 76.9268 90.8723 80.2906 92.3089C83.7231 93.7455 86.3661 95.7635 88.2197 98.363C90.0732 100.963 91 103.972 91 107.393V142.794C91 143.273 90.8627 143.649 90.5881 143.923C90.3135 144.196 89.9359 144.333 89.4554 144.333H73.1853C72.7048 144.333 72.3272 144.196 72.0526 143.923C71.778 143.649 71.6407 143.273 71.6407 142.794V140.639C71.6407 140.365 71.5721 140.229 71.4348 140.229C71.2975 140.16 71.1259 140.229 70.9199 140.434C68.5858 143.581 64.9474 145.154 60.0046 145.154C50.6682 145.154 46 139.716 46 128.839C46 124.05 46.8581 120.493 48.5744 118.167C50.2906 115.841 52.6247 114.336 55.5767 113.652C58.5286 112.968 62.5103 112.626 67.5217 112.626H71.0229C71.4348 112.626 71.6407 112.421 71.6407 112.01V109.753C71.6407 108.864 71.3661 108.145 70.8169 107.598C70.2677 106.982 69.5469 106.675 68.6545 106.675C67.4874 106.675 66.6636 107.29 66.1831 108.522C65.8398 109.479 65.2906 109.958 64.5355 109.958L48.0595 109.753C47.0297 109.753 46.5149 109.274 46.5149 108.316C46.8581 102.639 49.0206 98.192 53.0023 94.9768C57.0526 91.7616 62.27 90.1541 68.6545 90.1541ZM68.3455 131.301C69.1693 131.301 69.9245 131.062 70.611 130.583C71.2975 130.036 71.6407 129.352 71.6407 128.531V125.76C71.6407 125.35 71.4348 125.145 71.0229 125.145H68.9634C68.0023 125.145 67.2128 125.487 66.595 126.171C66.0458 126.787 65.7712 127.539 65.7712 128.428C65.7712 129.318 66.0114 130.036 66.492 130.583C67.0412 131.062 67.659 131.301 68.3455 131.301Z" fill="black"/>
<path d="M22.5 145.154C15.7192 145.154 10.274 143.156 6.16438 139.16C2.05479 135.163 0 129.824 0 123.14V92.9613C0 86.2779 2.02055 80.9725 6.06164 77.0451C10.1712 73.1177 15.6507 71.1541 22.5 71.1541C29.2808 71.1541 34.726 73.1177 38.8356 77.0451C42.9452 80.9725 45 86.2779 45 92.9613V93.4781C45 93.9604 44.863 94.3738 44.589 94.7183C44.3151 94.9939 43.9384 95.1317 43.4589 95.1317L27.226 95.6485C26.1986 95.6485 25.6849 95.1662 25.6849 94.2015V91.6177C25.6849 90.4464 25.3767 89.5162 24.7603 88.8272C24.2123 88.1382 23.4589 87.7937 22.5 87.7937C21.5411 87.7937 20.7534 88.1382 20.137 88.8272C19.589 89.5162 19.3151 90.4464 19.3151 91.6177V124.794C19.3151 125.965 19.589 126.895 20.137 127.584C20.7534 128.204 21.5411 128.514 22.5 128.514C23.4589 128.514 24.2123 128.204 24.7603 127.584C25.3767 126.895 25.6849 125.965 25.6849 124.794V122.003C25.6849 121.039 26.1986 120.556 27.226 120.556L43.4589 121.073C43.9384 121.073 44.3151 121.245 44.589 121.59C44.863 121.865 45 122.244 45 122.727V123.14C45 127.55 44.0411 131.443 42.1233 134.819C40.274 138.126 37.637 140.675 34.2123 142.467C30.8562 144.258 26.9521 145.154 22.5 145.154Z" fill="black"/>
<rect x="427" y="191.968" width="23" height="36" transform="rotate(90 427 191.968)" fill="#FD9D24"/>
<rect x="391" y="191.968" width="23" height="35" transform="rotate(90 391 191.968)" fill="#1197D9"/>
<rect x="356" y="191.968" width="23" height="36" transform="rotate(90 356 191.968)" fill="#8E44AD"/>
<rect x="320" y="191.968" width="23" height="35" transform="rotate(90 320 191.968)" fill="#DD1567"/>
<rect x="285" y="191.968" width="23" height="36" transform="rotate(90 285 191.968)" fill="#26BDE1"/>
<rect x="249" y="191.968" width="23" height="35" transform="rotate(90 249 191.968)" fill="#A21942"/>
<rect x="214" y="191.968" width="23" height="36" transform="rotate(90 214 191.968)" fill="#4C9F38"/>
<rect x="178" y="191.968" width="23" height="35" transform="rotate(90 178 191.968)" fill="#01689D"/>
<rect x="143" y="191.968" width="23" height="36" transform="rotate(90 143 191.968)" fill="#FD6924"/>
<rect x="107" y="191.968" width="23" height="35" transform="rotate(90 107 191.968)" fill="#DDA63A"/>
<rect x="72" y="191.968" width="23" height="36" transform="rotate(90 72 191.968)" fill="#C5192D"/>
<rect x="36" y="191.968" width="23" height="36" transform="rotate(90 36 191.968)" fill="#3F7E44"/>
<path d="M424.502 246.648C424.502 247.021 424.395 247.315 424.182 247.528C423.969 247.741 423.675 247.848 423.302 247.848H408.022C407.702 247.848 407.542 248.008 407.542 248.328V256.008C407.542 256.328 407.702 256.488 408.022 256.488H415.942C416.315 256.488 416.609 256.595 416.822 256.808C417.035 257.021 417.142 257.315 417.142 257.688V268.168C417.142 268.541 417.035 268.835 416.822 269.048C416.609 269.261 416.315 269.368 415.942 269.368H408.022C407.702 269.368 407.542 269.528 407.542 269.848V277.608C407.542 277.928 407.702 278.088 408.022 278.088H423.302C423.675 278.088 423.969 278.195 424.182 278.408C424.395 278.621 424.502 278.915 424.502 279.288V289.768C424.502 290.141 424.395 290.435 424.182 290.648C423.969 290.861 423.675 290.968 423.302 290.968H393.702C393.329 290.968 393.035 290.861 392.822 290.648C392.609 290.435 392.502 290.141 392.502 289.768V236.168C392.502 235.795 392.609 235.501 392.822 235.288C393.035 235.075 393.329 234.968 393.702 234.968H423.302C423.675 234.968 423.969 235.075 424.182 235.288C424.395 235.501 424.502 235.795 424.502 236.168V246.648Z" fill="#DD1567"/>
<path d="M347.123 290.968C346.43 290.968 346.003 290.621 345.843 289.928L340.963 269.848C340.856 269.581 340.75 269.448 340.643 269.448C340.43 269.448 340.323 269.608 340.323 269.928V289.768C340.323 290.141 340.216 290.435 340.003 290.648C339.79 290.861 339.496 290.968 339.123 290.968H326.483C326.11 290.968 325.816 290.861 325.603 290.648C325.39 290.435 325.283 290.141 325.283 289.768V236.168C325.283 235.795 325.39 235.501 325.603 235.288C325.816 235.075 326.11 234.968 326.483 234.968H344.483C347.683 234.968 350.51 235.741 352.963 237.288C355.47 238.781 357.416 240.888 358.803 243.608C360.19 246.275 360.883 249.341 360.883 252.808C360.883 255.741 360.376 258.381 359.363 260.728C358.35 263.021 356.883 264.888 354.963 266.328C354.75 266.488 354.67 266.701 354.723 266.968L361.203 289.608C361.256 289.715 361.283 289.848 361.283 290.008C361.283 290.648 360.91 290.968 360.163 290.968H347.123ZM340.803 247.848C340.483 247.848 340.323 248.008 340.323 248.328V257.528C340.323 257.848 340.483 258.008 340.803 258.008H341.843C343.016 258.008 343.976 257.581 344.723 256.728C345.47 255.821 345.843 254.568 345.843 252.968C345.843 251.315 345.47 250.061 344.723 249.208C344.03 248.301 343.07 247.848 341.843 247.848H340.803Z" fill="#DD1567"/>
<path d="M275.968 291.608C272.501 291.608 269.461 290.888 266.848 289.448C264.234 288.008 262.208 285.981 260.768 283.368C259.328 280.755 258.608 277.741 258.608 274.328V236.168C258.608 235.795 258.714 235.501 258.928 235.288C259.141 235.075 259.434 234.968 259.808 234.968H272.448C272.821 234.968 273.114 235.075 273.328 235.288C273.541 235.501 273.648 235.795 273.648 236.168V275.768C273.648 276.675 273.861 277.395 274.288 277.928C274.714 278.461 275.274 278.728 275.968 278.728C276.661 278.728 277.194 278.461 277.568 277.928C277.994 277.395 278.208 276.675 278.208 275.768V236.168C278.208 235.795 278.314 235.501 278.528 235.288C278.741 235.075 279.034 234.968 279.408 234.968H292.048C292.421 234.968 292.714 235.075 292.928 235.288C293.141 235.501 293.248 235.795 293.248 236.168V274.328C293.248 277.741 292.528 280.755 291.088 283.368C289.648 285.981 287.621 288.008 285.008 289.448C282.394 290.888 279.381 291.608 275.968 291.608Z" fill="#DD1567"/>
<path d="M226.046 234.968C226.419 234.968 226.712 235.075 226.926 235.288C227.139 235.501 227.246 235.795 227.246 236.168V246.648C227.246 247.021 227.139 247.315 226.926 247.528C226.712 247.741 226.419 247.848 226.046 247.848H216.606C216.286 247.848 216.126 248.008 216.126 248.328V289.768C216.126 290.141 216.019 290.435 215.806 290.648C215.592 290.861 215.299 290.968 214.926 290.968H202.286C201.912 290.968 201.619 290.861 201.406 290.648C201.192 290.435 201.086 290.141 201.086 289.768V248.328C201.086 248.008 200.926 247.848 200.606 247.848H191.406C191.032 247.848 190.739 247.741 190.526 247.528C190.312 247.315 190.206 247.021 190.206 246.648V236.168C190.206 235.795 190.312 235.501 190.526 235.288C190.739 235.075 191.032 234.968 191.406 234.968H226.046Z" fill="#DD1567"/>
<path d="M135.843 290.968C135.469 290.968 135.176 290.861 134.963 290.648C134.749 290.435 134.643 290.141 134.643 289.768V236.168C134.643 235.795 134.749 235.501 134.963 235.288C135.176 235.075 135.469 234.968 135.843 234.968H148.483C148.856 234.968 149.149 235.075 149.363 235.288C149.576 235.501 149.683 235.795 149.683 236.168V277.608C149.683 277.928 149.843 278.088 150.163 278.088H165.763C166.136 278.088 166.429 278.195 166.643 278.408C166.856 278.621 166.963 278.915 166.963 279.288V289.768C166.963 290.141 166.856 290.435 166.643 290.648C166.429 290.861 166.136 290.968 165.763 290.968H135.843Z" fill="#DD1567"/>
<path d="M85.3268 291.608C81.8601 291.608 78.8201 290.888 76.2068 289.448C73.5935 288.008 71.5668 285.981 70.1268 283.368C68.6868 280.755 67.9668 277.741 67.9668 274.328V236.168C67.9668 235.795 68.0735 235.501 68.2868 235.288C68.5001 235.075 68.7935 234.968 69.1668 234.968H81.8068C82.1801 234.968 82.4735 235.075 82.6868 235.288C82.9001 235.501 83.0068 235.795 83.0068 236.168V275.768C83.0068 276.675 83.2201 277.395 83.6468 277.928C84.0735 278.461 84.6335 278.728 85.3268 278.728C86.0201 278.728 86.5535 278.461 86.9268 277.928C87.3535 277.395 87.5668 276.675 87.5668 275.768V236.168C87.5668 235.795 87.6735 235.501 87.8868 235.288C88.1001 235.075 88.3935 234.968 88.7668 234.968H101.407C101.78 234.968 102.073 235.075 102.287 235.288C102.5 235.501 102.607 235.795 102.607 236.168V274.328C102.607 277.741 101.887 280.755 100.447 283.368C99.0068 285.981 96.9801 288.008 94.3668 289.448C91.7535 290.888 88.7401 291.608 85.3268 291.608Z" fill="#DD1567"/>
<path d="M19.1201 291.608C13.8401 291.608 9.6001 290.061 6.4001 286.968C3.2001 283.875 1.6001 279.741 1.6001 274.568V251.208C1.6001 246.035 3.17343 241.928 6.3201 238.888C9.5201 235.848 13.7868 234.328 19.1201 234.328C24.4001 234.328 28.6401 235.848 31.8401 238.888C35.0401 241.928 36.6401 246.035 36.6401 251.208V251.608C36.6401 251.981 36.5334 252.301 36.3201 252.568C36.1068 252.781 35.8134 252.888 35.4401 252.888L22.8001 253.288C22.0001 253.288 21.6001 252.915 21.6001 252.168V250.168C21.6001 249.261 21.3601 248.541 20.8801 248.008C20.4534 247.475 19.8668 247.208 19.1201 247.208C18.3734 247.208 17.7601 247.475 17.2801 248.008C16.8534 248.541 16.6401 249.261 16.6401 250.168V275.848C16.6401 276.755 16.8534 277.475 17.2801 278.008C17.7601 278.488 18.3734 278.728 19.1201 278.728C19.8668 278.728 20.4534 278.488 20.8801 278.008C21.3601 277.475 21.6001 276.755 21.6001 275.848V273.688C21.6001 272.941 22.0001 272.568 22.8001 272.568L35.4401 272.968C35.8134 272.968 36.1068 273.101 36.3201 273.368C36.5334 273.581 36.6401 273.875 36.6401 274.248V274.568C36.6401 277.981 35.8934 280.995 34.4001 283.608C32.9601 286.168 30.9068 288.141 28.2401 289.528C25.6268 290.915 22.5868 291.608 19.1201 291.608Z" fill="#DD1567"/>
</svg>
