<svg width="429" height="292" viewBox="0 0 429 292" fill="none" xmlns="http://www.w3.org/2000/svg">
<path d="M374.691 139.131C374.183 139.47 374.014 139.893 374.183 140.401C374.353 140.74 374.776 140.909 375.453 140.909H422.698C423.884 140.909 424.815 141.248 425.493 141.925C426.17 142.603 426.509 143.534 426.509 144.719V177.994C426.509 179.179 426.17 180.111 425.493 180.788C424.815 181.465 423.884 181.804 422.698 181.804H319.826C318.641 181.804 317.709 181.465 317.032 180.788C316.355 180.111 316.016 179.179 316.016 177.994V143.703C316.016 141.841 316.609 140.232 317.794 138.877L333.288 121.605C341.755 112.291 348.19 105.01 352.593 99.7602C357.165 94.5108 361.229 89.2613 364.785 84.0119C372.744 72.4969 376.723 62.3367 376.723 53.5312C376.723 46.419 374.522 42.8629 370.119 42.8629C368.087 42.8629 366.394 43.7096 365.039 45.403C363.854 46.927 363.261 49.0438 363.261 51.7531V62.4214C363.261 63.6067 362.922 64.5381 362.245 65.2155C361.568 65.8928 360.636 66.2315 359.451 66.2315H318.81C317.625 66.2315 316.693 65.8928 316.016 65.2155C315.339 64.5381 315 63.6067 315 62.4214V49.7211C315.677 40.2382 318.471 31.9407 323.382 24.8285C328.462 17.547 335.236 11.9589 343.703 8.06415C352.169 4.00006 361.737 1.96802 372.405 1.96802C382.735 1.96802 391.879 4.1694 399.838 8.57216C407.797 12.8056 413.978 18.9017 418.38 26.8606C422.783 34.6501 424.985 43.625 424.985 53.7852C424.985 63.2681 423.63 71.7349 420.92 79.1858C418.211 86.4673 413.724 94.2568 407.458 102.554C401.87 110.005 395.266 117.71 387.646 125.669C380.195 133.458 375.877 137.946 374.691 139.131Z" fill="black"/>
<path d="M208.812 4.76203C210.337 4.25401 211.861 4 213.385 4H255.042C256.227 4 257.158 4.33867 257.836 5.01602C258.513 5.69337 258.852 6.62473 258.852 7.81009V177.994C258.852 179.179 258.513 180.111 257.836 180.788C257.158 181.465 256.227 181.804 255.042 181.804H214.909C213.723 181.804 212.792 181.465 212.115 180.788C211.437 180.111 211.099 179.179 211.099 177.994V48.959C211.099 47.943 210.591 47.435 209.574 47.435H192.81C191.625 47.435 190.693 47.0963 190.016 46.419C189.339 45.7416 189 44.8103 189 43.6249V14.1602C189 11.9589 190.016 10.5195 192.048 9.84213L208.812 4.76203Z" fill="black"/>
<path d="M307.042 2C308.624 2.00009 310.113 2.4644 311.25 3.60156C312.387 4.73887 312.852 6.22825 312.852 7.81055V177.994C312.852 179.576 312.387 181.065 311.25 182.202C310.113 183.339 308.624 183.804 307.042 183.804H266.908C265.326 183.804 263.837 183.339 262.7 182.202C261.563 181.065 261.099 179.576 261.099 177.994V49.4346H244.811C243.228 49.4346 241.739 48.9703 240.602 47.833C239.464 46.6958 239 45.2072 239 43.625V14.1602C239 12.7504 239.328 11.4094 240.128 10.2764C240.931 9.13855 242.085 8.38815 243.416 7.94434L243.441 7.93652L243.468 7.92773L260.232 2.84766V2.84863C261.932 2.28771 263.652 2 265.385 2H307.042Z" fill="black" stroke="white" stroke-width="4"/>
<path d="M286.734 141.968C280.748 141.968 275.947 140.569 272.331 137.77C268.777 134.972 267 131.271 267 126.67V126.39C267 125.954 267.125 125.612 267.374 125.364C267.624 125.115 267.966 124.99 268.403 124.99H282.432C282.868 124.99 283.211 125.115 283.46 125.364C283.71 125.55 283.835 125.83 283.835 126.203C283.835 127.136 284.115 127.851 284.676 128.349C285.237 128.846 285.861 129.095 286.547 129.095C287.108 129.095 287.544 128.939 287.856 128.628C288.168 128.255 288.324 127.82 288.324 127.322C288.324 126.39 287.856 125.706 286.921 125.27C285.986 124.773 284.427 124.213 282.245 123.591C281.496 123.405 280.624 123.156 279.626 122.845C276.321 121.788 273.484 120.077 271.115 117.714C268.808 115.289 267.655 111.993 267.655 107.826C267.655 102.975 269.338 99.1198 272.705 96.2591C276.072 93.3984 280.499 91.968 285.986 91.968C291.722 91.968 296.305 93.5227 299.734 96.6322C303.163 99.7416 304.878 103.846 304.878 108.946C304.878 109.194 304.753 109.412 304.504 109.599C304.254 109.785 303.911 109.878 303.475 109.878H289.914C289.477 109.878 289.134 109.754 288.885 109.505C288.635 109.257 288.511 108.915 288.511 108.479V107.92C288.511 107.173 288.293 106.582 287.856 106.147C287.482 105.712 287.014 105.494 286.453 105.494C285.83 105.494 285.331 105.743 284.957 106.24C284.645 106.738 284.489 107.298 284.489 107.92C284.489 109.163 285.082 110.127 286.266 110.811C287.513 111.495 289.103 112.117 291.036 112.677C295.525 113.983 299.141 115.662 301.885 117.714C304.628 119.767 306 122.907 306 127.136C306 131.738 304.223 135.376 300.669 138.05C297.177 140.662 292.532 141.968 286.734 141.968Z" fill="white"/>
<path d="M237.095 93.5745C237.095 93.1326 237.222 92.7854 237.476 92.5328C237.73 92.2803 238.079 92.1541 238.524 92.1541H253.571C254.016 92.1541 254.365 92.2803 254.619 92.5328C254.873 92.7854 255 93.1326 255 93.5745V139.976C255 140.418 254.873 140.765 254.619 141.018C254.365 141.27 254.016 141.396 253.571 141.396H238.524C238.079 141.396 237.73 141.27 237.476 141.018C237.222 140.765 237.095 140.418 237.095 139.976V139.597C237.095 139.345 237.032 139.187 236.905 139.124C236.778 139.061 236.619 139.124 236.429 139.313C235.476 140.45 234.333 141.207 233 141.586C231.73 141.965 230.238 142.154 228.524 142.154C224.714 142.154 221.508 140.986 218.905 138.65C216.302 136.314 215 132.684 215 127.76V93.5745C215 93.1326 215.127 92.7854 215.381 92.5328C215.635 92.2803 215.984 92.1541 216.429 92.1541H231.476C231.921 92.1541 232.27 92.2803 232.524 92.5328C232.778 92.7854 232.905 93.1326 232.905 93.5745V123.878C232.905 125.898 233.571 126.908 234.905 126.908C236.365 126.908 237.095 125.898 237.095 123.878V93.5745Z" fill="white"/>
<path d="M191.974 90.1541C196.888 90.1541 200.437 91.735 202.621 94.897C204.874 98.0589 206 102.596 206 108.507V127.066C206 133.184 204.874 137.79 202.621 140.883C200.369 143.907 196.82 145.42 191.974 145.42C187.947 145.42 184.944 143.873 182.964 140.78C182.828 140.505 182.657 140.402 182.452 140.47C182.316 140.539 182.248 140.711 182.248 140.986V161.607C182.248 162.089 182.111 162.467 181.838 162.742C181.565 163.017 181.19 163.154 180.712 163.154H164.536C164.058 163.154 163.683 163.017 163.41 162.742C163.137 162.467 163 162.089 163 161.607V92.5255C163 92.0444 163.137 91.6663 163.41 91.3913C163.683 91.1164 164.058 90.9789 164.536 90.9789H180.712C181.19 90.9789 181.565 91.1164 181.838 91.3913C182.111 91.6663 182.248 92.0444 182.248 92.5255V94.5877C182.248 94.7251 182.316 94.7939 182.452 94.7939C182.725 94.7939 183.135 94.4502 183.681 93.7628C185.66 91.357 188.425 90.1541 191.974 90.1541ZM186.752 110.054C186.752 109.091 186.548 108.301 186.138 107.682C185.797 107.064 185.285 106.754 184.602 106.754C183.92 106.754 183.34 107.064 182.862 107.682C182.452 108.301 182.248 109.091 182.248 110.054V125.52C182.248 126.482 182.452 127.273 182.862 127.891C183.34 128.51 183.92 128.819 184.602 128.819C185.285 128.819 185.797 128.51 186.138 127.891C186.548 127.273 186.752 126.482 186.752 125.52V110.054Z" fill="black"/>
<path d="M145.626 90.1541C155.209 90.1541 160 96.2904 160 108.563V142.62C160 143.097 159.865 143.472 159.595 143.745C159.325 144.018 158.954 144.154 158.482 144.154H142.488C142.015 144.154 141.644 144.018 141.374 143.745C141.104 143.472 140.969 143.097 140.969 142.62V109.893C140.969 107.711 140.261 106.62 138.844 106.62C137.291 106.62 136.515 107.711 136.515 109.893V142.62C136.515 143.097 136.38 143.472 136.11 143.745C135.84 144.018 135.469 144.154 134.997 144.154H119.003C118.531 144.154 118.16 144.018 117.89 143.745C117.62 143.472 117.485 143.097 117.485 142.62V109.893C117.485 107.711 116.776 106.62 115.359 106.62C113.807 106.62 113.031 107.711 113.031 109.893V142.62C113.031 143.097 112.896 143.472 112.626 143.745C112.356 144.018 111.985 144.154 111.512 144.154H95.5184C95.046 144.154 94.6749 144.018 94.4049 143.745C94.135 143.472 94 143.097 94 142.62V92.5063C94 92.029 94.135 91.654 94.4049 91.3813C94.6749 91.1086 95.046 90.9722 95.5184 90.9722H111.512C112.525 90.9722 113.031 91.4495 113.031 92.404V92.8131C113.031 93.0859 113.098 93.2563 113.233 93.3245C113.368 93.3927 113.537 93.3245 113.739 93.12C115.966 91.1427 118.767 90.1541 122.141 90.1541C127.54 90.1541 131.387 92.0972 133.681 95.9836C133.816 96.12 133.917 96.1881 133.985 96.1881C134.255 96.1881 134.592 95.8813 134.997 95.2677C137.494 91.8586 141.037 90.1541 145.626 90.1541Z" fill="black"/>
<path d="M68.6545 90.1541C73.048 90.1541 76.9268 90.8723 80.2906 92.3089C83.7231 93.7455 86.3661 95.7635 88.2197 98.363C90.0732 100.963 91 103.972 91 107.393V142.794C91 143.273 90.8627 143.649 90.5881 143.923C90.3135 144.196 89.9359 144.333 89.4554 144.333H73.1853C72.7048 144.333 72.3272 144.196 72.0526 143.923C71.778 143.649 71.6407 143.273 71.6407 142.794V140.639C71.6407 140.365 71.5721 140.229 71.4348 140.229C71.2975 140.16 71.1259 140.229 70.9199 140.434C68.5858 143.581 64.9474 145.154 60.0046 145.154C50.6682 145.154 46 139.716 46 128.839C46 124.05 46.8581 120.493 48.5744 118.167C50.2906 115.841 52.6247 114.336 55.5767 113.652C58.5286 112.968 62.5103 112.626 67.5217 112.626H71.0229C71.4348 112.626 71.6407 112.421 71.6407 112.01V109.753C71.6407 108.864 71.3661 108.145 70.8169 107.598C70.2677 106.982 69.5469 106.675 68.6545 106.675C67.4874 106.675 66.6636 107.29 66.1831 108.522C65.8398 109.479 65.2906 109.958 64.5355 109.958L48.0595 109.753C47.0297 109.753 46.5149 109.274 46.5149 108.316C46.8581 102.639 49.0206 98.192 53.0023 94.9768C57.0526 91.7616 62.27 90.1541 68.6545 90.1541ZM68.3455 131.301C69.1693 131.301 69.9245 131.062 70.611 130.583C71.2975 130.036 71.6407 129.352 71.6407 128.531V125.76C71.6407 125.35 71.4348 125.145 71.0229 125.145H68.9634C68.0023 125.145 67.2128 125.487 66.595 126.171C66.0458 126.787 65.7712 127.539 65.7712 128.428C65.7712 129.318 66.0114 130.036 66.492 130.583C67.0412 131.062 67.659 131.301 68.3455 131.301Z" fill="black"/>
<path d="M22.5 145.154C15.7192 145.154 10.274 143.156 6.16438 139.16C2.05479 135.163 0 129.824 0 123.14V92.9613C0 86.2779 2.02055 80.9725 6.06164 77.0451C10.1712 73.1177 15.6507 71.1541 22.5 71.1541C29.2808 71.1541 34.726 73.1177 38.8356 77.0451C42.9452 80.9725 45 86.2779 45 92.9613V93.4781C45 93.9604 44.863 94.3738 44.589 94.7183C44.3151 94.9939 43.9384 95.1317 43.4589 95.1317L27.226 95.6485C26.1986 95.6485 25.6849 95.1662 25.6849 94.2015V91.6177C25.6849 90.4464 25.3767 89.5162 24.7603 88.8272C24.2123 88.1382 23.4589 87.7937 22.5 87.7937C21.5411 87.7937 20.7534 88.1382 20.137 88.8272C19.589 89.5162 19.3151 90.4464 19.3151 91.6177V124.794C19.3151 125.965 19.589 126.895 20.137 127.584C20.7534 128.204 21.5411 128.514 22.5 128.514C23.4589 128.514 24.2123 128.204 24.7603 127.584C25.3767 126.895 25.6849 125.965 25.6849 124.794V122.003C25.6849 121.039 26.1986 120.556 27.226 120.556L43.4589 121.073C43.9384 121.073 44.3151 121.245 44.589 121.59C44.863 121.865 45 122.244 45 122.727V123.14C45 127.55 44.0411 131.443 42.1233 134.819C40.274 138.126 37.637 140.675 34.2123 142.467C30.8562 144.258 26.9521 145.154 22.5 145.154Z" fill="black"/>
<rect x="427" y="191.968" width="23" height="36" transform="rotate(90 427 191.968)" fill="#FD9D24"/>
<rect x="391" y="191.968" width="23" height="35" transform="rotate(90 391 191.968)" fill="#1197D9"/>
<rect x="356" y="191.968" width="23" height="36" transform="rotate(90 356 191.968)" fill="#8E44AD"/>
<rect x="320" y="191.968" width="23" height="35" transform="rotate(90 320 191.968)" fill="#DD1567"/>
<rect x="285" y="191.968" width="23" height="36" transform="rotate(90 285 191.968)" fill="#26BDE1"/>
<rect x="249" y="191.968" width="23" height="35" transform="rotate(90 249 191.968)" fill="#A21942"/>
<rect x="214" y="191.968" width="23" height="36" transform="rotate(90 214 191.968)" fill="#4C9F38"/>
<rect x="178" y="191.968" width="23" height="35" transform="rotate(90 178 191.968)" fill="#01689D"/>
<rect x="143" y="191.968" width="23" height="36" transform="rotate(90 143 191.968)" fill="#FD6924"/>
<rect x="107" y="191.968" width="23" height="35" transform="rotate(90 107 191.968)" fill="#DDA63A"/>
<rect x="72" y="191.968" width="23" height="36" transform="rotate(90 72 191.968)" fill="#C5192D"/>
<rect x="36" y="191.968" width="23" height="36" transform="rotate(90 36 191.968)" fill="#3F7E44"/>
<path d="M411.762 291.608C408.349 291.608 405.362 290.968 402.802 289.688C400.242 288.408 398.242 286.648 396.802 284.408C395.416 282.115 394.722 279.501 394.722 276.568V274.088C394.722 273.715 394.829 273.421 395.042 273.208C395.256 272.995 395.549 272.888 395.922 272.888H408.402C408.776 272.888 409.069 272.995 409.282 273.208C409.496 273.421 409.602 273.715 409.602 274.088V275.848C409.602 276.701 409.816 277.395 410.242 277.928C410.669 278.461 411.202 278.728 411.842 278.728C412.482 278.728 413.016 278.488 413.442 278.008C413.869 277.528 414.082 276.915 414.082 276.168C414.082 275.261 413.656 274.381 412.802 273.528C411.949 272.621 410.162 271.208 407.442 269.288C404.776 267.421 402.562 265.715 400.802 264.168C399.096 262.621 397.602 260.675 396.322 258.328C395.042 255.981 394.402 253.288 394.402 250.248C394.402 247.101 395.096 244.328 396.482 241.928C397.922 239.528 399.922 237.661 402.482 236.328C405.096 234.995 408.082 234.328 411.442 234.328C414.856 234.328 417.842 234.995 420.402 236.328C423.016 237.661 425.016 239.528 426.402 241.928C427.842 244.328 428.562 247.101 428.562 250.248V252.008C428.562 252.381 428.456 252.675 428.242 252.888C428.029 253.101 427.736 253.208 427.362 253.208H414.962C414.589 253.208 414.296 253.101 414.082 252.888C413.869 252.675 413.762 252.381 413.762 252.008V249.928C413.762 249.128 413.549 248.488 413.122 248.008C412.696 247.475 412.136 247.208 411.442 247.208C410.749 247.208 410.189 247.475 409.762 248.008C409.389 248.541 409.202 249.261 409.202 250.168C409.202 251.235 409.629 252.275 410.482 253.288C411.336 254.248 413.042 255.661 415.602 257.528C419.016 260.035 421.576 262.061 423.282 263.608C425.042 265.155 426.402 266.915 427.362 268.888C428.376 270.808 428.882 273.075 428.882 275.688C428.882 280.541 427.309 284.408 424.162 287.288C421.016 290.168 416.882 291.608 411.762 291.608Z" fill="#1197D9"/>
<path d="M380.521 234.968C380.894 234.968 381.187 235.075 381.401 235.288C381.614 235.501 381.721 235.795 381.721 236.168V246.648C381.721 247.021 381.614 247.315 381.401 247.528C381.187 247.741 380.894 247.848 380.521 247.848H371.081C370.761 247.848 370.601 248.008 370.601 248.328V289.768C370.601 290.141 370.494 290.435 370.281 290.648C370.067 290.861 369.774 290.968 369.401 290.968H356.761C356.387 290.968 356.094 290.861 355.881 290.648C355.667 290.435 355.561 290.141 355.561 289.768V248.328C355.561 248.008 355.401 247.848 355.081 247.848H345.881C345.507 247.848 345.214 247.741 345.001 247.528C344.787 247.315 344.681 247.021 344.681 246.648V236.168C344.681 235.795 344.787 235.501 345.001 235.288C345.214 235.075 345.507 234.968 345.881 234.968H380.521Z" fill="#1197D9"/>
<path d="M314.455 236.168C314.455 235.795 314.562 235.501 314.775 235.288C314.988 235.075 315.282 234.968 315.655 234.968H328.135C328.508 234.968 328.802 235.075 329.015 235.288C329.228 235.501 329.335 235.795 329.335 236.168V289.768C329.335 290.141 329.228 290.435 329.015 290.648C328.802 290.861 328.508 290.968 328.135 290.968H313.895C313.202 290.968 312.775 290.621 312.615 289.928L306.535 265.688C306.482 265.528 306.375 265.448 306.215 265.448C306.055 265.448 305.975 265.555 305.975 265.768L306.135 289.768C306.135 290.141 306.028 290.435 305.815 290.648C305.602 290.861 305.308 290.968 304.935 290.968H292.455C292.082 290.968 291.788 290.861 291.575 290.648C291.362 290.435 291.255 290.141 291.255 289.768V236.168C291.255 235.795 291.362 235.501 291.575 235.288C291.788 235.075 292.082 234.968 292.455 234.968H306.535C307.228 234.968 307.655 235.315 307.815 236.008L313.975 260.328C314.028 260.541 314.135 260.648 314.295 260.648C314.455 260.648 314.535 260.541 314.535 260.328L314.455 236.168Z" fill="#1197D9"/>
<path d="M263.155 290.968C262.355 290.968 261.928 290.595 261.875 289.848L260.995 283.848C260.995 283.741 260.942 283.635 260.835 283.528C260.728 283.421 260.595 283.368 260.435 283.368H253.395C253.235 283.368 253.102 283.421 252.995 283.528C252.888 283.635 252.835 283.741 252.835 283.848L252.035 289.848C251.982 290.595 251.555 290.968 250.755 290.968H238.195C237.342 290.968 236.995 290.541 237.155 289.688L248.515 236.008C248.675 235.315 249.128 234.968 249.875 234.968H264.435C265.182 234.968 265.635 235.315 265.795 236.008L277.155 289.688V290.008C277.155 290.648 276.782 290.968 276.035 290.968H263.155ZM254.595 271.368C254.595 271.688 254.728 271.848 254.995 271.848H258.755C259.128 271.848 259.262 271.688 259.155 271.368L256.995 256.968C256.942 256.755 256.862 256.648 256.755 256.648C256.648 256.648 256.568 256.755 256.515 256.968L254.595 271.368Z" fill="#1197D9"/>
<path d="M207.136 290.968C206.763 290.968 206.47 290.861 206.256 290.648C206.043 290.435 205.936 290.141 205.936 289.768V236.168C205.936 235.795 206.043 235.501 206.256 235.288C206.47 235.075 206.763 234.968 207.136 234.968H219.776C220.15 234.968 220.443 235.075 220.656 235.288C220.87 235.501 220.976 235.795 220.976 236.168V289.768C220.976 290.141 220.87 290.435 220.656 290.648C220.443 290.861 220.15 290.968 219.776 290.968H207.136Z" fill="#1197D9"/>
<path d="M155.664 290.968C155.291 290.968 154.998 290.861 154.784 290.648C154.571 290.435 154.464 290.141 154.464 289.768V236.168C154.464 235.795 154.571 235.501 154.784 235.288C154.998 235.075 155.291 234.968 155.664 234.968H171.424C174.944 234.968 178.038 235.635 180.704 236.968C183.424 238.301 185.531 240.195 187.024 242.648C188.518 245.048 189.264 247.821 189.264 250.968V274.968C189.264 278.115 188.518 280.915 187.024 283.368C185.531 285.768 183.424 287.635 180.704 288.968C178.038 290.301 174.944 290.968 171.424 290.968H155.664ZM169.504 277.608C169.504 277.928 169.664 278.088 169.984 278.088L171.104 278.008C171.958 277.955 172.678 277.555 173.264 276.808C173.851 276.061 174.171 275.101 174.224 273.928V251.928C174.224 250.701 173.931 249.715 173.344 248.968C172.758 248.221 171.984 247.848 171.024 247.848H169.984C169.664 247.848 169.504 248.008 169.504 248.328V277.608Z" fill="#1197D9"/>
<path d="M120.349 291.608C116.882 291.608 113.842 290.888 111.229 289.448C108.615 288.008 106.589 285.981 105.149 283.368C103.709 280.755 102.989 277.741 102.989 274.328V236.168C102.989 235.795 103.095 235.501 103.309 235.288C103.522 235.075 103.815 234.968 104.189 234.968H116.829C117.202 234.968 117.495 235.075 117.709 235.288C117.922 235.501 118.029 235.795 118.029 236.168V275.768C118.029 276.675 118.242 277.395 118.669 277.928C119.095 278.461 119.655 278.728 120.349 278.728C121.042 278.728 121.575 278.461 121.949 277.928C122.375 277.395 122.589 276.675 122.589 275.768V236.168C122.589 235.795 122.695 235.501 122.909 235.288C123.122 235.075 123.415 234.968 123.789 234.968H136.429C136.802 234.968 137.095 235.075 137.309 235.288C137.522 235.501 137.629 235.795 137.629 236.168V274.328C137.629 277.741 136.909 280.755 135.469 283.368C134.029 285.981 132.002 288.008 129.389 289.448C126.775 290.888 123.762 291.608 120.349 291.608Z" fill="#1197D9"/>
<path d="M85.6269 234.968C86.0002 234.968 86.2935 235.075 86.5069 235.288C86.7202 235.501 86.8269 235.795 86.8269 236.168V246.648C86.8269 247.021 86.7202 247.315 86.5069 247.528C86.2935 247.741 86.0002 247.848 85.6269 247.848H76.1869C75.8669 247.848 75.7069 248.008 75.7069 248.328V289.768C75.7069 290.141 75.6002 290.435 75.3869 290.648C75.1735 290.861 74.8802 290.968 74.5069 290.968H61.8669C61.4935 290.968 61.2002 290.861 60.9869 290.648C60.7735 290.435 60.6669 290.141 60.6669 289.768V248.328C60.6669 248.008 60.5069 247.848 60.1869 247.848H50.9869C50.6135 247.848 50.3202 247.741 50.1069 247.528C49.8935 247.315 49.7869 247.021 49.7869 246.648V236.168C49.7869 235.795 49.8935 235.501 50.1069 235.288C50.3202 235.075 50.6135 234.968 50.9869 234.968H85.6269Z" fill="#1197D9"/>
<path d="M34.0801 246.648C34.0801 247.021 33.9734 247.315 33.7601 247.528C33.5467 247.741 33.2534 247.848 32.8801 247.848H17.6001C17.2801 247.848 17.1201 248.008 17.1201 248.328V256.008C17.1201 256.328 17.2801 256.488 17.6001 256.488H25.5201C25.8934 256.488 26.1867 256.595 26.4001 256.808C26.6134 257.021 26.7201 257.315 26.7201 257.688V268.168C26.7201 268.541 26.6134 268.835 26.4001 269.048C26.1867 269.261 25.8934 269.368 25.5201 269.368H17.6001C17.2801 269.368 17.1201 269.528 17.1201 269.848V277.608C17.1201 277.928 17.2801 278.088 17.6001 278.088H32.8801C33.2534 278.088 33.5467 278.195 33.7601 278.408C33.9734 278.621 34.0801 278.915 34.0801 279.288V289.768C34.0801 290.141 33.9734 290.435 33.7601 290.648C33.5467 290.861 33.2534 290.968 32.8801 290.968H3.28008C2.90675 290.968 2.61341 290.861 2.40008 290.648C2.18674 290.435 2.08008 290.141 2.08008 289.768V236.168C2.08008 235.795 2.18674 235.501 2.40008 235.288C2.61341 235.075 2.90675 234.968 3.28008 234.968H32.8801C33.2534 234.968 33.5467 235.075 33.7601 235.288C33.9734 235.501 34.0801 235.795 34.0801 236.168V246.648ZM12.9601 230.248C12.2667 230.248 11.9201 230.008 11.9201 229.528C11.9201 229.261 12.0001 229.021 12.1601 228.808L16.5601 221.368C16.8801 220.835 17.3601 220.568 18.0001 220.568H27.7601C28.0801 220.568 28.3201 220.648 28.4801 220.808C28.6934 220.915 28.8001 221.075 28.8001 221.288C28.8001 221.555 28.6934 221.795 28.4801 222.008L22.3201 229.528C21.9467 230.008 21.4667 230.248 20.8801 230.248H12.9601Z" fill="#1197D9"/>
</svg>
