<svg width="428" height="292" viewBox="0 0 428 292" fill="none" xmlns="http://www.w3.org/2000/svg">
<path d="M374.691 139.131C374.183 139.47 374.014 139.893 374.183 140.401C374.353 140.74 374.776 140.909 375.453 140.909H422.698C423.884 140.909 424.815 141.248 425.493 141.925C426.17 142.603 426.509 143.534 426.509 144.719V177.994C426.509 179.179 426.17 180.111 425.493 180.788C424.815 181.465 423.884 181.804 422.698 181.804H319.826C318.641 181.804 317.709 181.465 317.032 180.788C316.355 180.111 316.016 179.179 316.016 177.994V143.703C316.016 141.841 316.609 140.232 317.794 138.877L333.288 121.605C341.755 112.291 348.19 105.01 352.593 99.7602C357.165 94.5108 361.229 89.2613 364.785 84.0119C372.744 72.4969 376.723 62.3367 376.723 53.5312C376.723 46.419 374.522 42.8629 370.119 42.8629C368.087 42.8629 366.394 43.7096 365.039 45.403C363.854 46.927 363.261 49.0438 363.261 51.7531V62.4214C363.261 63.6067 362.922 64.5381 362.245 65.2155C361.568 65.8928 360.636 66.2315 359.451 66.2315H318.81C317.625 66.2315 316.693 65.8928 316.016 65.2155C315.339 64.5381 315 63.6067 315 62.4214V49.7211C315.677 40.2382 318.471 31.9407 323.382 24.8285C328.462 17.547 335.236 11.9589 343.703 8.06415C352.169 4.00006 361.737 1.96802 372.405 1.96802C382.735 1.96802 391.879 4.1694 399.838 8.57216C407.797 12.8056 413.978 18.9017 418.38 26.8606C422.783 34.6501 424.985 43.625 424.985 53.7852C424.985 63.2681 423.63 71.7349 420.92 79.1858C418.211 86.4673 413.724 94.2568 407.458 102.554C401.87 110.005 395.266 117.71 387.646 125.669C380.195 133.458 375.877 137.946 374.691 139.131Z" fill="black"/>
<path d="M208.812 4.76203C210.337 4.25401 211.861 4 213.385 4H255.042C256.227 4 257.158 4.33867 257.836 5.01602C258.513 5.69337 258.852 6.62473 258.852 7.81009V177.994C258.852 179.179 258.513 180.111 257.836 180.788C257.158 181.465 256.227 181.804 255.042 181.804H214.909C213.723 181.804 212.792 181.465 212.115 180.788C211.437 180.111 211.099 179.179 211.099 177.994V48.959C211.099 47.943 210.591 47.435 209.574 47.435H192.81C191.625 47.435 190.693 47.0963 190.016 46.419C189.339 45.7416 189 44.8103 189 43.6249V14.1602C189 11.9589 190.016 10.5195 192.048 9.84213L208.812 4.76203Z" fill="black"/>
<path d="M307.042 2C308.624 2.00009 310.113 2.4644 311.25 3.60156C312.387 4.73887 312.852 6.22825 312.852 7.81055V177.994C312.852 179.576 312.387 181.065 311.25 182.202C310.113 183.339 308.624 183.804 307.042 183.804H266.908C265.326 183.804 263.837 183.339 262.7 182.202C261.563 181.065 261.099 179.576 261.099 177.994V49.4346H244.811C243.228 49.4346 241.739 48.9703 240.602 47.833C239.464 46.6958 239 45.2072 239 43.625V14.1602C239 12.7504 239.328 11.4094 240.128 10.2764C240.931 9.13855 242.085 8.38815 243.416 7.94434L243.441 7.93652L243.468 7.92773L260.232 2.84766V2.84863C261.932 2.28771 263.652 2 265.385 2H307.042Z" fill="black" stroke="white" stroke-width="4"/>
<path d="M286.734 141.968C280.748 141.968 275.947 140.569 272.331 137.77C268.777 134.972 267 131.271 267 126.67V126.39C267 125.954 267.125 125.612 267.374 125.364C267.624 125.115 267.966 124.99 268.403 124.99H282.432C282.868 124.99 283.211 125.115 283.46 125.364C283.71 125.55 283.835 125.83 283.835 126.203C283.835 127.136 284.115 127.851 284.676 128.349C285.237 128.846 285.861 129.095 286.547 129.095C287.108 129.095 287.544 128.939 287.856 128.628C288.168 128.255 288.324 127.82 288.324 127.322C288.324 126.39 287.856 125.706 286.921 125.27C285.986 124.773 284.427 124.213 282.245 123.591C281.496 123.405 280.624 123.156 279.626 122.845C276.321 121.788 273.484 120.077 271.115 117.714C268.808 115.289 267.655 111.993 267.655 107.826C267.655 102.975 269.338 99.1198 272.705 96.2591C276.072 93.3984 280.499 91.968 285.986 91.968C291.722 91.968 296.305 93.5227 299.734 96.6322C303.163 99.7416 304.878 103.846 304.878 108.946C304.878 109.194 304.753 109.412 304.504 109.599C304.254 109.785 303.911 109.878 303.475 109.878H289.914C289.477 109.878 289.134 109.754 288.885 109.505C288.635 109.257 288.511 108.915 288.511 108.479V107.92C288.511 107.173 288.293 106.582 287.856 106.147C287.482 105.712 287.014 105.494 286.453 105.494C285.83 105.494 285.331 105.743 284.957 106.24C284.645 106.738 284.489 107.298 284.489 107.92C284.489 109.163 285.082 110.127 286.266 110.811C287.513 111.495 289.103 112.117 291.036 112.677C295.525 113.983 299.141 115.662 301.885 117.714C304.628 119.767 306 122.907 306 127.136C306 131.738 304.223 135.376 300.669 138.05C297.177 140.662 292.532 141.968 286.734 141.968Z" fill="white"/>
<path d="M237.095 93.5745C237.095 93.1326 237.222 92.7854 237.476 92.5328C237.73 92.2803 238.079 92.1541 238.524 92.1541H253.571C254.016 92.1541 254.365 92.2803 254.619 92.5328C254.873 92.7854 255 93.1326 255 93.5745V139.976C255 140.418 254.873 140.765 254.619 141.018C254.365 141.27 254.016 141.396 253.571 141.396H238.524C238.079 141.396 237.73 141.27 237.476 141.018C237.222 140.765 237.095 140.418 237.095 139.976V139.597C237.095 139.345 237.032 139.187 236.905 139.124C236.778 139.061 236.619 139.124 236.429 139.313C235.476 140.45 234.333 141.207 233 141.586C231.73 141.965 230.238 142.154 228.524 142.154C224.714 142.154 221.508 140.986 218.905 138.65C216.302 136.314 215 132.684 215 127.76V93.5745C215 93.1326 215.127 92.7854 215.381 92.5328C215.635 92.2803 215.984 92.1541 216.429 92.1541H231.476C231.921 92.1541 232.27 92.2803 232.524 92.5328C232.778 92.7854 232.905 93.1326 232.905 93.5745V123.878C232.905 125.898 233.571 126.908 234.905 126.908C236.365 126.908 237.095 125.898 237.095 123.878V93.5745Z" fill="white"/>
<path d="M191.974 90.1541C196.888 90.1541 200.437 91.735 202.621 94.897C204.874 98.0589 206 102.596 206 108.507V127.066C206 133.184 204.874 137.79 202.621 140.883C200.369 143.907 196.82 145.42 191.974 145.42C187.947 145.42 184.944 143.873 182.964 140.78C182.828 140.505 182.657 140.402 182.452 140.47C182.316 140.539 182.248 140.711 182.248 140.986V161.607C182.248 162.089 182.111 162.467 181.838 162.742C181.565 163.017 181.19 163.154 180.712 163.154H164.536C164.058 163.154 163.683 163.017 163.41 162.742C163.137 162.467 163 162.089 163 161.607V92.5255C163 92.0444 163.137 91.6663 163.41 91.3913C163.683 91.1164 164.058 90.9789 164.536 90.9789H180.712C181.19 90.9789 181.565 91.1164 181.838 91.3913C182.111 91.6663 182.248 92.0444 182.248 92.5255V94.5877C182.248 94.7251 182.316 94.7939 182.452 94.7939C182.725 94.7939 183.135 94.4502 183.681 93.7628C185.66 91.357 188.425 90.1541 191.974 90.1541ZM186.752 110.054C186.752 109.091 186.548 108.301 186.138 107.682C185.797 107.064 185.285 106.754 184.602 106.754C183.92 106.754 183.34 107.064 182.862 107.682C182.452 108.301 182.248 109.091 182.248 110.054V125.52C182.248 126.482 182.452 127.273 182.862 127.891C183.34 128.51 183.92 128.819 184.602 128.819C185.285 128.819 185.797 128.51 186.138 127.891C186.548 127.273 186.752 126.482 186.752 125.52V110.054Z" fill="black"/>
<path d="M145.626 90.1541C155.209 90.1541 160 96.2904 160 108.563V142.62C160 143.097 159.865 143.472 159.595 143.745C159.325 144.018 158.954 144.154 158.482 144.154H142.488C142.015 144.154 141.644 144.018 141.374 143.745C141.104 143.472 140.969 143.097 140.969 142.62V109.893C140.969 107.711 140.261 106.62 138.844 106.62C137.291 106.62 136.515 107.711 136.515 109.893V142.62C136.515 143.097 136.38 143.472 136.11 143.745C135.84 144.018 135.469 144.154 134.997 144.154H119.003C118.531 144.154 118.16 144.018 117.89 143.745C117.62 143.472 117.485 143.097 117.485 142.62V109.893C117.485 107.711 116.776 106.62 115.359 106.62C113.807 106.62 113.031 107.711 113.031 109.893V142.62C113.031 143.097 112.896 143.472 112.626 143.745C112.356 144.018 111.985 144.154 111.512 144.154H95.5184C95.046 144.154 94.6749 144.018 94.4049 143.745C94.135 143.472 94 143.097 94 142.62V92.5063C94 92.029 94.135 91.654 94.4049 91.3813C94.6749 91.1086 95.046 90.9722 95.5184 90.9722H111.512C112.525 90.9722 113.031 91.4495 113.031 92.404V92.8131C113.031 93.0859 113.098 93.2563 113.233 93.3245C113.368 93.3927 113.537 93.3245 113.739 93.12C115.966 91.1427 118.767 90.1541 122.141 90.1541C127.54 90.1541 131.387 92.0972 133.681 95.9836C133.816 96.12 133.917 96.1881 133.985 96.1881C134.255 96.1881 134.592 95.8813 134.997 95.2677C137.494 91.8586 141.037 90.1541 145.626 90.1541Z" fill="black"/>
<path d="M68.6545 90.1541C73.048 90.1541 76.9268 90.8723 80.2906 92.3089C83.7231 93.7455 86.3661 95.7635 88.2197 98.363C90.0732 100.963 91 103.972 91 107.393V142.794C91 143.273 90.8627 143.649 90.5881 143.923C90.3135 144.196 89.9359 144.333 89.4554 144.333H73.1853C72.7048 144.333 72.3272 144.196 72.0526 143.923C71.778 143.649 71.6407 143.273 71.6407 142.794V140.639C71.6407 140.365 71.5721 140.229 71.4348 140.229C71.2975 140.16 71.1259 140.229 70.9199 140.434C68.5858 143.581 64.9474 145.154 60.0046 145.154C50.6682 145.154 46 139.716 46 128.839C46 124.05 46.8581 120.493 48.5744 118.167C50.2906 115.841 52.6247 114.336 55.5767 113.652C58.5286 112.968 62.5103 112.626 67.5217 112.626H71.0229C71.4348 112.626 71.6407 112.421 71.6407 112.01V109.753C71.6407 108.864 71.3661 108.145 70.8169 107.598C70.2677 106.982 69.5469 106.675 68.6545 106.675C67.4874 106.675 66.6636 107.29 66.1831 108.522C65.8398 109.479 65.2906 109.958 64.5355 109.958L48.0595 109.753C47.0297 109.753 46.5149 109.274 46.5149 108.316C46.8581 102.639 49.0206 98.192 53.0023 94.9768C57.0526 91.7616 62.27 90.1541 68.6545 90.1541ZM68.3455 131.301C69.1693 131.301 69.9245 131.062 70.611 130.583C71.2975 130.036 71.6407 129.352 71.6407 128.531V125.76C71.6407 125.35 71.4348 125.145 71.0229 125.145H68.9634C68.0023 125.145 67.2128 125.487 66.595 126.171C66.0458 126.787 65.7712 127.539 65.7712 128.428C65.7712 129.318 66.0114 130.036 66.492 130.583C67.0412 131.062 67.659 131.301 68.3455 131.301Z" fill="black"/>
<path d="M22.5 145.154C15.7192 145.154 10.274 143.156 6.16438 139.16C2.05479 135.163 0 129.824 0 123.14V92.9613C0 86.2779 2.02055 80.9725 6.06164 77.0451C10.1712 73.1177 15.6507 71.1541 22.5 71.1541C29.2808 71.1541 34.726 73.1177 38.8356 77.0451C42.9452 80.9725 45 86.2779 45 92.9613V93.4781C45 93.9604 44.863 94.3738 44.589 94.7183C44.3151 94.9939 43.9384 95.1317 43.4589 95.1317L27.226 95.6485C26.1986 95.6485 25.6849 95.1662 25.6849 94.2015V91.6177C25.6849 90.4464 25.3767 89.5162 24.7603 88.8272C24.2123 88.1382 23.4589 87.7937 22.5 87.7937C21.5411 87.7937 20.7534 88.1382 20.137 88.8272C19.589 89.5162 19.3151 90.4464 19.3151 91.6177V124.794C19.3151 125.965 19.589 126.895 20.137 127.584C20.7534 128.204 21.5411 128.514 22.5 128.514C23.4589 128.514 24.2123 128.204 24.7603 127.584C25.3767 126.895 25.6849 125.965 25.6849 124.794V122.003C25.6849 121.039 26.1986 120.556 27.226 120.556L43.4589 121.073C43.9384 121.073 44.3151 121.245 44.589 121.59C44.863 121.865 45 122.244 45 122.727V123.14C45 127.55 44.0411 131.443 42.1233 134.819C40.274 138.126 37.637 140.675 34.2123 142.467C30.8562 144.258 26.9521 145.154 22.5 145.154Z" fill="black"/>
<rect x="427" y="191.968" width="23" height="36" transform="rotate(90 427 191.968)" fill="#FD9D24"/>
<rect x="391" y="191.968" width="23" height="35" transform="rotate(90 391 191.968)" fill="#1197D9"/>
<rect x="356" y="191.968" width="23" height="36" transform="rotate(90 356 191.968)" fill="#8E44AD"/>
<rect x="320" y="191.968" width="23" height="35" transform="rotate(90 320 191.968)" fill="#DD1567"/>
<rect x="285" y="191.968" width="23" height="36" transform="rotate(90 285 191.968)" fill="#26BDE1"/>
<rect x="249" y="191.968" width="23" height="35" transform="rotate(90 249 191.968)" fill="#A21942"/>
<rect x="214" y="191.968" width="23" height="36" transform="rotate(90 214 191.968)" fill="#4C9F38"/>
<rect x="178" y="191.968" width="23" height="35" transform="rotate(90 178 191.968)" fill="#01689D"/>
<rect x="143" y="191.968" width="23" height="36" transform="rotate(90 143 191.968)" fill="#FD6924"/>
<rect x="107" y="191.968" width="23" height="35" transform="rotate(90 107 191.968)" fill="#DDA63A"/>
<rect x="72" y="191.968" width="23" height="36" transform="rotate(90 72 191.968)" fill="#C5192D"/>
<rect x="36" y="191.968" width="23" height="36" transform="rotate(90 36 191.968)" fill="#3F7E44"/>
<path d="M410.831 291.608C407.418 291.608 404.431 290.968 401.871 289.688C399.311 288.408 397.311 286.648 395.871 284.408C394.485 282.115 393.791 279.501 393.791 276.568V274.088C393.791 273.715 393.898 273.421 394.111 273.208C394.325 272.995 394.618 272.888 394.991 272.888H407.471C407.845 272.888 408.138 272.995 408.351 273.208C408.565 273.421 408.671 273.715 408.671 274.088V275.848C408.671 276.701 408.885 277.395 409.311 277.928C409.738 278.461 410.271 278.728 410.911 278.728C411.551 278.728 412.085 278.488 412.511 278.008C412.938 277.528 413.151 276.915 413.151 276.168C413.151 275.261 412.725 274.381 411.871 273.528C411.018 272.621 409.231 271.208 406.511 269.288C403.845 267.421 401.631 265.715 399.871 264.168C398.165 262.621 396.671 260.675 395.391 258.328C394.111 255.981 393.471 253.288 393.471 250.248C393.471 247.101 394.165 244.328 395.551 241.928C396.991 239.528 398.991 237.661 401.551 236.328C404.165 234.995 407.151 234.328 410.511 234.328C413.925 234.328 416.911 234.995 419.471 236.328C422.085 237.661 424.085 239.528 425.471 241.928C426.911 244.328 427.631 247.101 427.631 250.248V252.008C427.631 252.381 427.525 252.675 427.311 252.888C427.098 253.101 426.805 253.208 426.431 253.208H414.031C413.658 253.208 413.365 253.101 413.151 252.888C412.938 252.675 412.831 252.381 412.831 252.008V249.928C412.831 249.128 412.618 248.488 412.191 248.008C411.765 247.475 411.205 247.208 410.511 247.208C409.818 247.208 409.258 247.475 408.831 248.008C408.458 248.541 408.271 249.261 408.271 250.168C408.271 251.235 408.698 252.275 409.551 253.288C410.405 254.248 412.111 255.661 414.671 257.528C418.085 260.035 420.645 262.061 422.351 263.608C424.111 265.155 425.471 266.915 426.431 268.888C427.445 270.808 427.951 273.075 427.951 275.688C427.951 280.541 426.378 284.408 423.231 287.288C420.085 290.168 415.951 291.608 410.831 291.608Z" fill="#C5192D"/>
<path d="M387.364 246.648C387.364 247.021 387.258 247.315 387.044 247.528C386.831 247.741 386.538 247.848 386.164 247.848H370.884C370.564 247.848 370.404 248.008 370.404 248.328V256.008C370.404 256.328 370.564 256.488 370.884 256.488H378.804C379.178 256.488 379.471 256.595 379.684 256.808C379.898 257.021 380.004 257.315 380.004 257.688V268.168C380.004 268.541 379.898 268.835 379.684 269.048C379.471 269.261 379.178 269.368 378.804 269.368H370.884C370.564 269.368 370.404 269.528 370.404 269.848V277.608C370.404 277.928 370.564 278.088 370.884 278.088H386.164C386.538 278.088 386.831 278.195 387.044 278.408C387.258 278.621 387.364 278.915 387.364 279.288V289.768C387.364 290.141 387.258 290.435 387.044 290.648C386.831 290.861 386.538 290.968 386.164 290.968H356.564C356.191 290.968 355.898 290.861 355.684 290.648C355.471 290.435 355.364 290.141 355.364 289.768V236.168C355.364 235.795 355.471 235.501 355.684 235.288C355.898 235.075 356.191 234.968 356.564 234.968H386.164C386.538 234.968 386.831 235.075 387.044 235.288C387.258 235.501 387.364 235.795 387.364 236.168V246.648Z" fill="#C5192D"/>
<path d="M331.853 291.608C328.44 291.608 325.453 290.968 322.893 289.688C320.333 288.408 318.333 286.648 316.893 284.408C315.506 282.115 314.813 279.501 314.813 276.568V274.088C314.813 273.715 314.92 273.421 315.133 273.208C315.346 272.995 315.64 272.888 316.013 272.888H328.493C328.866 272.888 329.16 272.995 329.373 273.208C329.587 273.421 329.693 273.715 329.693 274.088V275.848C329.693 276.701 329.906 277.395 330.333 277.928C330.76 278.461 331.293 278.728 331.933 278.728C332.573 278.728 333.107 278.488 333.533 278.008C333.96 277.528 334.173 276.915 334.173 276.168C334.173 275.261 333.746 274.381 332.893 273.528C332.04 272.621 330.253 271.208 327.533 269.288C324.867 267.421 322.653 265.715 320.893 264.168C319.186 262.621 317.693 260.675 316.413 258.328C315.133 255.981 314.493 253.288 314.493 250.248C314.493 247.101 315.186 244.328 316.573 241.928C318.013 239.528 320.013 237.661 322.573 236.328C325.186 234.995 328.173 234.328 331.533 234.328C334.947 234.328 337.933 234.995 340.493 236.328C343.106 237.661 345.106 239.528 346.493 241.928C347.933 244.328 348.653 247.101 348.653 250.248V252.008C348.653 252.381 348.546 252.675 348.333 252.888C348.12 253.101 347.826 253.208 347.453 253.208H335.053C334.68 253.208 334.386 253.101 334.173 252.888C333.96 252.675 333.853 252.381 333.853 252.008V249.928C333.853 249.128 333.64 248.488 333.213 248.008C332.786 247.475 332.227 247.208 331.533 247.208C330.84 247.208 330.28 247.475 329.853 248.008C329.48 248.541 329.293 249.261 329.293 250.168C329.293 251.235 329.72 252.275 330.573 253.288C331.426 254.248 333.133 255.661 335.693 257.528C339.107 260.035 341.667 262.061 343.373 263.608C345.133 265.155 346.493 266.915 347.453 268.888C348.466 270.808 348.973 273.075 348.973 275.688C348.973 280.541 347.4 284.408 344.253 287.288C341.107 290.168 336.973 291.608 331.853 291.608Z" fill="#C5192D"/>
<path d="M293.914 290.968C293.541 290.968 293.248 290.861 293.034 290.648C292.821 290.435 292.714 290.141 292.714 289.768V236.168C292.714 235.795 292.821 235.501 293.034 235.288C293.248 235.075 293.541 234.968 293.914 234.968H306.554C306.928 234.968 307.221 235.075 307.434 235.288C307.648 235.501 307.754 235.795 307.754 236.168V289.768C307.754 290.141 307.648 290.435 307.434 290.648C307.221 290.861 306.928 290.968 306.554 290.968H293.914Z" fill="#C5192D"/>
<path d="M272.136 290.968C271.442 290.968 271.016 290.621 270.856 289.928L265.976 269.848C265.869 269.581 265.762 269.448 265.656 269.448C265.442 269.448 265.336 269.608 265.336 269.928V289.768C265.336 290.141 265.229 290.435 265.016 290.648C264.802 290.861 264.509 290.968 264.136 290.968H251.496C251.122 290.968 250.829 290.861 250.616 290.648C250.402 290.435 250.296 290.141 250.296 289.768V236.168C250.296 235.795 250.402 235.501 250.616 235.288C250.829 235.075 251.122 234.968 251.496 234.968H269.496C272.696 234.968 275.522 235.741 277.976 237.288C280.482 238.781 282.429 240.888 283.816 243.608C285.202 246.275 285.896 249.341 285.896 252.808C285.896 255.741 285.389 258.381 284.376 260.728C283.362 263.021 281.896 264.888 279.976 266.328C279.762 266.488 279.682 266.701 279.736 266.968L286.216 289.608C286.269 289.715 286.296 289.848 286.296 290.008C286.296 290.648 285.922 290.968 285.176 290.968H272.136ZM265.816 247.848C265.496 247.848 265.336 248.008 265.336 248.328V257.528C265.336 257.848 265.496 258.008 265.816 258.008H266.856C268.029 258.008 268.989 257.581 269.736 256.728C270.482 255.821 270.856 254.568 270.856 252.968C270.856 251.315 270.482 250.061 269.736 249.208C269.042 248.301 268.082 247.848 266.856 247.848H265.816Z" fill="#C5192D"/>
<path d="M227.62 234.968C230.82 234.968 233.647 235.741 236.1 237.288C238.607 238.781 240.553 240.888 241.94 243.608C243.327 246.328 244.02 249.448 244.02 252.968C244.02 256.381 243.353 259.395 242.02 262.008C240.74 264.621 238.927 266.648 236.58 268.088C234.233 269.475 231.513 270.168 228.42 270.168H223.94C223.62 270.168 223.46 270.328 223.46 270.648V289.768C223.46 290.141 223.353 290.435 223.14 290.648C222.927 290.861 222.633 290.968 222.26 290.968H209.62C209.247 290.968 208.953 290.861 208.74 290.648C208.527 290.435 208.42 290.141 208.42 289.768V236.168C208.42 235.795 208.527 235.501 208.74 235.288C208.953 235.075 209.247 234.968 209.62 234.968H227.62ZM224.98 258.568C226.207 258.568 227.167 258.141 227.86 257.288C228.607 256.381 228.98 255.048 228.98 253.288C228.98 251.528 228.607 250.195 227.86 249.288C227.167 248.328 226.207 247.848 224.98 247.848H223.94C223.62 247.848 223.46 248.008 223.46 248.328V258.088C223.46 258.408 223.62 258.568 223.94 258.568H224.98Z" fill="#C5192D"/>
<path d="M201.833 246.648C201.833 247.021 201.726 247.315 201.513 247.528C201.3 247.741 201.006 247.848 200.633 247.848H185.353C185.033 247.848 184.873 248.008 184.873 248.328V256.008C184.873 256.328 185.033 256.488 185.353 256.488H193.273C193.646 256.488 193.94 256.595 194.153 256.808C194.366 257.021 194.473 257.315 194.473 257.688V268.168C194.473 268.541 194.366 268.835 194.153 269.048C193.94 269.261 193.646 269.368 193.273 269.368H185.353C185.033 269.368 184.873 269.528 184.873 269.848V277.608C184.873 277.928 185.033 278.088 185.353 278.088H200.633C201.006 278.088 201.3 278.195 201.513 278.408C201.726 278.621 201.833 278.915 201.833 279.288V289.768C201.833 290.141 201.726 290.435 201.513 290.648C201.3 290.861 201.006 290.968 200.633 290.968H171.033C170.66 290.968 170.366 290.861 170.153 290.648C169.94 290.435 169.833 290.141 169.833 289.768V236.168C169.833 235.795 169.94 235.501 170.153 235.288C170.366 235.075 170.66 234.968 171.033 234.968H200.633C201.006 234.968 201.3 235.075 201.513 235.288C201.726 235.501 201.833 235.795 201.833 236.168V246.648Z" fill="#C5192D"/>
<path d="M149.254 290.968C148.561 290.968 148.134 290.621 147.974 289.928L143.094 269.848C142.988 269.581 142.881 269.448 142.774 269.448C142.561 269.448 142.454 269.608 142.454 269.928V289.768C142.454 290.141 142.348 290.435 142.134 290.648C141.921 290.861 141.628 290.968 141.254 290.968H128.614C128.241 290.968 127.948 290.861 127.734 290.648C127.521 290.435 127.414 290.141 127.414 289.768V236.168C127.414 235.795 127.521 235.501 127.734 235.288C127.948 235.075 128.241 234.968 128.614 234.968H146.614C149.814 234.968 152.641 235.741 155.094 237.288C157.601 238.781 159.548 240.888 160.934 243.608C162.321 246.275 163.014 249.341 163.014 252.808C163.014 255.741 162.508 258.381 161.494 260.728C160.481 263.021 159.014 264.888 157.094 266.328C156.881 266.488 156.801 266.701 156.854 266.968L163.334 289.608C163.388 289.715 163.414 289.848 163.414 290.008C163.414 290.648 163.041 290.968 162.294 290.968H149.254ZM142.934 247.848C142.614 247.848 142.454 248.008 142.454 248.328V257.528C142.454 257.848 142.614 258.008 142.934 258.008H143.974C145.148 258.008 146.108 257.581 146.854 256.728C147.601 255.821 147.974 254.568 147.974 252.968C147.974 251.315 147.601 250.061 146.854 249.208C146.161 248.301 145.201 247.848 143.974 247.848H142.934Z" fill="#C5192D"/>
<path d="M119.493 234.968C119.866 234.968 120.159 235.075 120.373 235.288C120.586 235.501 120.693 235.795 120.693 236.168V246.648C120.693 247.021 120.586 247.315 120.373 247.528C120.159 247.741 119.866 247.848 119.493 247.848H110.053C109.733 247.848 109.573 248.008 109.573 248.328V289.768C109.573 290.141 109.466 290.435 109.253 290.648C109.039 290.861 108.746 290.968 108.373 290.968H95.7326C95.3593 290.968 95.0659 290.861 94.8526 290.648C94.6393 290.435 94.5326 290.141 94.5326 289.768V248.328C94.5326 248.008 94.3726 247.848 94.0526 247.848H84.8526C84.4793 247.848 84.1859 247.741 83.9726 247.528C83.7593 247.315 83.6526 247.021 83.6526 246.648V236.168C83.6526 235.795 83.7593 235.501 83.9726 235.288C84.1859 235.075 84.4793 234.968 84.8526 234.968H119.493Z" fill="#C5192D"/>
<path d="M62.0269 236.168C62.0269 235.795 62.1336 235.501 62.3469 235.288C62.5602 235.075 62.8536 234.968 63.2269 234.968H75.7069C76.0802 234.968 76.3736 235.075 76.5869 235.288C76.8002 235.501 76.9069 235.795 76.9069 236.168V289.768C76.9069 290.141 76.8002 290.435 76.5869 290.648C76.3736 290.861 76.0802 290.968 75.7069 290.968H61.4669C60.7736 290.968 60.3469 290.621 60.1869 289.928L54.1069 265.688C54.0536 265.528 53.9469 265.448 53.7869 265.448C53.6269 265.448 53.5469 265.555 53.5469 265.768L53.7069 289.768C53.7069 290.141 53.6002 290.435 53.3869 290.648C53.1736 290.861 52.8802 290.968 52.5069 290.968H40.0269C39.6536 290.968 39.3602 290.861 39.1469 290.648C38.9336 290.435 38.8269 290.141 38.8269 289.768V236.168C38.8269 235.795 38.9336 235.501 39.1469 235.288C39.3602 235.075 39.6536 234.968 40.0269 234.968H54.1069C54.8002 234.968 55.2269 235.315 55.3869 236.008L61.5469 260.328C61.6002 260.541 61.7069 260.648 61.8669 260.648C62.0269 260.648 62.1069 260.541 62.1069 260.328L62.0269 236.168Z" fill="#C5192D"/>
<path d="M32.0801 246.648C32.0801 247.021 31.9734 247.315 31.7601 247.528C31.5467 247.741 31.2534 247.848 30.8801 247.848H15.6001C15.2801 247.848 15.1201 248.008 15.1201 248.328V256.008C15.1201 256.328 15.2801 256.488 15.6001 256.488H23.5201C23.8934 256.488 24.1867 256.595 24.4001 256.808C24.6134 257.021 24.7201 257.315 24.7201 257.688V268.168C24.7201 268.541 24.6134 268.835 24.4001 269.048C24.1867 269.261 23.8934 269.368 23.5201 269.368H15.6001C15.2801 269.368 15.1201 269.528 15.1201 269.848V277.608C15.1201 277.928 15.2801 278.088 15.6001 278.088H30.8801C31.2534 278.088 31.5467 278.195 31.7601 278.408C31.9734 278.621 32.0801 278.915 32.0801 279.288V289.768C32.0801 290.141 31.9734 290.435 31.7601 290.648C31.5467 290.861 31.2534 290.968 30.8801 290.968H1.28008C0.906745 290.968 0.613412 290.861 0.400078 290.648C0.186745 290.435 0.0800781 290.141 0.0800781 289.768V236.168C0.0800781 235.795 0.186745 235.501 0.400078 235.288C0.613412 235.075 0.906745 234.968 1.28008 234.968H30.8801C31.2534 234.968 31.5467 235.075 31.7601 235.288C31.9734 235.501 32.0801 235.795 32.0801 236.168V246.648Z" fill="#C5192D"/>
</svg>
