<svg width="427" height="292" viewBox="0 0 427 292" fill="none" xmlns="http://www.w3.org/2000/svg">
<path d="M374.691 139.131C374.183 139.47 374.014 139.893 374.183 140.401C374.353 140.74 374.776 140.909 375.453 140.909H422.698C423.884 140.909 424.815 141.248 425.493 141.925C426.17 142.603 426.509 143.534 426.509 144.719V177.994C426.509 179.179 426.17 180.111 425.493 180.788C424.815 181.465 423.884 181.804 422.698 181.804H319.826C318.641 181.804 317.709 181.465 317.032 180.788C316.355 180.111 316.016 179.179 316.016 177.994V143.703C316.016 141.841 316.609 140.232 317.794 138.877L333.288 121.605C341.755 112.291 348.19 105.01 352.593 99.7602C357.165 94.5108 361.229 89.2613 364.785 84.0119C372.744 72.4969 376.723 62.3367 376.723 53.5312C376.723 46.419 374.522 42.8629 370.119 42.8629C368.087 42.8629 366.394 43.7096 365.039 45.403C363.854 46.927 363.261 49.0438 363.261 51.7531V62.4214C363.261 63.6067 362.922 64.5381 362.245 65.2155C361.568 65.8928 360.636 66.2315 359.451 66.2315H318.81C317.625 66.2315 316.693 65.8928 316.016 65.2155C315.339 64.5381 315 63.6067 315 62.4214V49.7211C315.677 40.2382 318.471 31.9407 323.382 24.8285C328.462 17.547 335.236 11.9589 343.703 8.06415C352.169 4.00006 361.737 1.96802 372.405 1.96802C382.735 1.96802 391.879 4.1694 399.838 8.57216C407.797 12.8056 413.978 18.9017 418.38 26.8606C422.783 34.6501 424.985 43.625 424.985 53.7852C424.985 63.2681 423.63 71.7349 420.92 79.1858C418.211 86.4673 413.724 94.2568 407.458 102.554C401.87 110.005 395.266 117.71 387.646 125.669C380.195 133.458 375.877 137.946 374.691 139.131Z" fill="black"/>
<path d="M208.812 4.76203C210.337 4.25401 211.861 4 213.385 4H255.042C256.227 4 257.158 4.33867 257.836 5.01602C258.513 5.69337 258.852 6.62473 258.852 7.81009V177.994C258.852 179.179 258.513 180.111 257.836 180.788C257.158 181.465 256.227 181.804 255.042 181.804H214.909C213.723 181.804 212.792 181.465 212.115 180.788C211.437 180.111 211.099 179.179 211.099 177.994V48.959C211.099 47.943 210.591 47.435 209.574 47.435H192.81C191.625 47.435 190.693 47.0963 190.016 46.419C189.339 45.7416 189 44.8103 189 43.6249V14.1602C189 11.9589 190.016 10.5195 192.048 9.84213L208.812 4.76203Z" fill="black"/>
<path d="M307.042 2C308.624 2.00009 310.113 2.4644 311.25 3.60156C312.387 4.73887 312.852 6.22825 312.852 7.81055V177.994C312.852 179.576 312.387 181.065 311.25 182.202C310.113 183.339 308.624 183.804 307.042 183.804H266.908C265.326 183.804 263.837 183.339 262.7 182.202C261.563 181.065 261.099 179.576 261.099 177.994V49.4346H244.811C243.228 49.4346 241.739 48.9703 240.602 47.833C239.464 46.6958 239 45.2072 239 43.625V14.1602C239 12.7504 239.328 11.4094 240.128 10.2764C240.931 9.13855 242.085 8.38815 243.416 7.94434L243.441 7.93652L243.468 7.92773L260.232 2.84766V2.84863C261.932 2.28771 263.652 2 265.385 2H307.042Z" fill="black" stroke="white" stroke-width="4"/>
<path d="M286.734 141.968C280.748 141.968 275.947 140.569 272.331 137.77C268.777 134.972 267 131.271 267 126.67V126.39C267 125.954 267.125 125.612 267.374 125.364C267.624 125.115 267.966 124.99 268.403 124.99H282.432C282.868 124.99 283.211 125.115 283.46 125.364C283.71 125.55 283.835 125.83 283.835 126.203C283.835 127.136 284.115 127.851 284.676 128.349C285.237 128.846 285.861 129.095 286.547 129.095C287.108 129.095 287.544 128.939 287.856 128.628C288.168 128.255 288.324 127.82 288.324 127.322C288.324 126.39 287.856 125.706 286.921 125.27C285.986 124.773 284.427 124.213 282.245 123.591C281.496 123.405 280.624 123.156 279.626 122.845C276.321 121.788 273.484 120.077 271.115 117.714C268.808 115.289 267.655 111.993 267.655 107.826C267.655 102.975 269.338 99.1198 272.705 96.2591C276.072 93.3984 280.499 91.968 285.986 91.968C291.722 91.968 296.305 93.5227 299.734 96.6322C303.163 99.7416 304.878 103.846 304.878 108.946C304.878 109.194 304.753 109.412 304.504 109.599C304.254 109.785 303.911 109.878 303.475 109.878H289.914C289.477 109.878 289.134 109.754 288.885 109.505C288.635 109.257 288.511 108.915 288.511 108.479V107.92C288.511 107.173 288.293 106.582 287.856 106.147C287.482 105.712 287.014 105.494 286.453 105.494C285.83 105.494 285.331 105.743 284.957 106.24C284.645 106.738 284.489 107.298 284.489 107.92C284.489 109.163 285.082 110.127 286.266 110.811C287.513 111.495 289.103 112.117 291.036 112.677C295.525 113.983 299.141 115.662 301.885 117.714C304.628 119.767 306 122.907 306 127.136C306 131.738 304.223 135.376 300.669 138.05C297.177 140.662 292.532 141.968 286.734 141.968Z" fill="white"/>
<path d="M237.095 93.5745C237.095 93.1326 237.222 92.7854 237.476 92.5328C237.73 92.2803 238.079 92.1541 238.524 92.1541H253.571C254.016 92.1541 254.365 92.2803 254.619 92.5328C254.873 92.7854 255 93.1326 255 93.5745V139.976C255 140.418 254.873 140.765 254.619 141.018C254.365 141.27 254.016 141.396 253.571 141.396H238.524C238.079 141.396 237.73 141.27 237.476 141.018C237.222 140.765 237.095 140.418 237.095 139.976V139.597C237.095 139.345 237.032 139.187 236.905 139.124C236.778 139.061 236.619 139.124 236.429 139.313C235.476 140.45 234.333 141.207 233 141.586C231.73 141.965 230.238 142.154 228.524 142.154C224.714 142.154 221.508 140.986 218.905 138.65C216.302 136.314 215 132.684 215 127.76V93.5745C215 93.1326 215.127 92.7854 215.381 92.5328C215.635 92.2803 215.984 92.1541 216.429 92.1541H231.476C231.921 92.1541 232.27 92.2803 232.524 92.5328C232.778 92.7854 232.905 93.1326 232.905 93.5745V123.878C232.905 125.898 233.571 126.908 234.905 126.908C236.365 126.908 237.095 125.898 237.095 123.878V93.5745Z" fill="white"/>
<path d="M191.974 90.1541C196.888 90.1541 200.437 91.735 202.621 94.897C204.874 98.0589 206 102.596 206 108.507V127.066C206 133.184 204.874 137.79 202.621 140.883C200.369 143.907 196.82 145.42 191.974 145.42C187.947 145.42 184.944 143.873 182.964 140.78C182.828 140.505 182.657 140.402 182.452 140.47C182.316 140.539 182.248 140.711 182.248 140.986V161.607C182.248 162.089 182.111 162.467 181.838 162.742C181.565 163.017 181.19 163.154 180.712 163.154H164.536C164.058 163.154 163.683 163.017 163.41 162.742C163.137 162.467 163 162.089 163 161.607V92.5255C163 92.0444 163.137 91.6663 163.41 91.3913C163.683 91.1164 164.058 90.9789 164.536 90.9789H180.712C181.19 90.9789 181.565 91.1164 181.838 91.3913C182.111 91.6663 182.248 92.0444 182.248 92.5255V94.5877C182.248 94.7251 182.316 94.7939 182.452 94.7939C182.725 94.7939 183.135 94.4502 183.681 93.7628C185.66 91.357 188.425 90.1541 191.974 90.1541ZM186.752 110.054C186.752 109.091 186.548 108.301 186.138 107.682C185.797 107.064 185.285 106.754 184.602 106.754C183.92 106.754 183.34 107.064 182.862 107.682C182.452 108.301 182.248 109.091 182.248 110.054V125.52C182.248 126.482 182.452 127.273 182.862 127.891C183.34 128.51 183.92 128.819 184.602 128.819C185.285 128.819 185.797 128.51 186.138 127.891C186.548 127.273 186.752 126.482 186.752 125.52V110.054Z" fill="black"/>
<path d="M145.626 90.1541C155.209 90.1541 160 96.2904 160 108.563V142.62C160 143.097 159.865 143.472 159.595 143.745C159.325 144.018 158.954 144.154 158.482 144.154H142.488C142.015 144.154 141.644 144.018 141.374 143.745C141.104 143.472 140.969 143.097 140.969 142.62V109.893C140.969 107.711 140.261 106.62 138.844 106.62C137.291 106.62 136.515 107.711 136.515 109.893V142.62C136.515 143.097 136.38 143.472 136.11 143.745C135.84 144.018 135.469 144.154 134.997 144.154H119.003C118.531 144.154 118.16 144.018 117.89 143.745C117.62 143.472 117.485 143.097 117.485 142.62V109.893C117.485 107.711 116.776 106.62 115.359 106.62C113.807 106.62 113.031 107.711 113.031 109.893V142.62C113.031 143.097 112.896 143.472 112.626 143.745C112.356 144.018 111.985 144.154 111.512 144.154H95.5184C95.046 144.154 94.6749 144.018 94.4049 143.745C94.135 143.472 94 143.097 94 142.62V92.5063C94 92.029 94.135 91.654 94.4049 91.3813C94.6749 91.1086 95.046 90.9722 95.5184 90.9722H111.512C112.525 90.9722 113.031 91.4495 113.031 92.404V92.8131C113.031 93.0859 113.098 93.2563 113.233 93.3245C113.368 93.3927 113.537 93.3245 113.739 93.12C115.966 91.1427 118.767 90.1541 122.141 90.1541C127.54 90.1541 131.387 92.0972 133.681 95.9836C133.816 96.12 133.917 96.1881 133.985 96.1881C134.255 96.1881 134.592 95.8813 134.997 95.2677C137.494 91.8586 141.037 90.1541 145.626 90.1541Z" fill="black"/>
<path d="M68.6545 90.1541C73.048 90.1541 76.9268 90.8723 80.2906 92.3089C83.7231 93.7455 86.3661 95.7635 88.2197 98.363C90.0732 100.963 91 103.972 91 107.393V142.794C91 143.273 90.8627 143.649 90.5881 143.923C90.3135 144.196 89.9359 144.333 89.4554 144.333H73.1853C72.7048 144.333 72.3272 144.196 72.0526 143.923C71.778 143.649 71.6407 143.273 71.6407 142.794V140.639C71.6407 140.365 71.5721 140.229 71.4348 140.229C71.2975 140.16 71.1259 140.229 70.9199 140.434C68.5858 143.581 64.9474 145.154 60.0046 145.154C50.6682 145.154 46 139.716 46 128.839C46 124.05 46.8581 120.493 48.5744 118.167C50.2906 115.841 52.6247 114.336 55.5767 113.652C58.5286 112.968 62.5103 112.626 67.5217 112.626H71.0229C71.4348 112.626 71.6407 112.421 71.6407 112.01V109.753C71.6407 108.864 71.3661 108.145 70.8169 107.598C70.2677 106.982 69.5469 106.675 68.6545 106.675C67.4874 106.675 66.6636 107.29 66.1831 108.522C65.8398 109.479 65.2906 109.958 64.5355 109.958L48.0595 109.753C47.0297 109.753 46.5149 109.274 46.5149 108.316C46.8581 102.639 49.0206 98.192 53.0023 94.9768C57.0526 91.7616 62.27 90.1541 68.6545 90.1541ZM68.3455 131.301C69.1693 131.301 69.9245 131.062 70.611 130.583C71.2975 130.036 71.6407 129.352 71.6407 128.531V125.76C71.6407 125.35 71.4348 125.145 71.0229 125.145H68.9634C68.0023 125.145 67.2128 125.487 66.595 126.171C66.0458 126.787 65.7712 127.539 65.7712 128.428C65.7712 129.318 66.0114 130.036 66.492 130.583C67.0412 131.062 67.659 131.301 68.3455 131.301Z" fill="black"/>
<path d="M22.5 145.154C15.7192 145.154 10.274 143.156 6.16438 139.16C2.05479 135.163 0 129.824 0 123.14V92.9613C0 86.2779 2.02055 80.9725 6.06164 77.0451C10.1712 73.1177 15.6507 71.1541 22.5 71.1541C29.2808 71.1541 34.726 73.1177 38.8356 77.0451C42.9452 80.9725 45 86.2779 45 92.9613V93.4781C45 93.9604 44.863 94.3738 44.589 94.7183C44.3151 94.9939 43.9384 95.1317 43.4589 95.1317L27.226 95.6485C26.1986 95.6485 25.6849 95.1662 25.6849 94.2015V91.6177C25.6849 90.4464 25.3767 89.5162 24.7603 88.8272C24.2123 88.1382 23.4589 87.7937 22.5 87.7937C21.5411 87.7937 20.7534 88.1382 20.137 88.8272C19.589 89.5162 19.3151 90.4464 19.3151 91.6177V124.794C19.3151 125.965 19.589 126.895 20.137 127.584C20.7534 128.204 21.5411 128.514 22.5 128.514C23.4589 128.514 24.2123 128.204 24.7603 127.584C25.3767 126.895 25.6849 125.965 25.6849 124.794V122.003C25.6849 121.039 26.1986 120.556 27.226 120.556L43.4589 121.073C43.9384 121.073 44.3151 121.245 44.589 121.59C44.863 121.865 45 122.244 45 122.727V123.14C45 127.55 44.0411 131.443 42.1233 134.819C40.274 138.126 37.637 140.675 34.2123 142.467C30.8562 144.258 26.9521 145.154 22.5 145.154Z" fill="black"/>
<rect x="427" y="191.968" width="23" height="36" transform="rotate(90 427 191.968)" fill="#FD9D24"/>
<rect x="391" y="191.968" width="23" height="35" transform="rotate(90 391 191.968)" fill="#1197D9"/>
<rect x="356" y="191.968" width="23" height="36" transform="rotate(90 356 191.968)" fill="#8E44AD"/>
<rect x="320" y="191.968" width="23" height="35" transform="rotate(90 320 191.968)" fill="#DD1567"/>
<rect x="285" y="191.968" width="23" height="36" transform="rotate(90 285 191.968)" fill="#26BDE1"/>
<rect x="249" y="191.968" width="23" height="35" transform="rotate(90 249 191.968)" fill="#A21942"/>
<rect x="214" y="191.968" width="23" height="36" transform="rotate(90 214 191.968)" fill="#4C9F38"/>
<rect x="178" y="191.968" width="23" height="35" transform="rotate(90 178 191.968)" fill="#01689D"/>
<rect x="143" y="191.968" width="23" height="36" transform="rotate(90 143 191.968)" fill="#FD6924"/>
<rect x="107" y="191.968" width="23" height="35" transform="rotate(90 107 191.968)" fill="#DDA63A"/>
<rect x="72" y="191.968" width="23" height="36" transform="rotate(90 72 191.968)" fill="#C5192D"/>
<rect x="36" y="191.968" width="23" height="36" transform="rotate(90 36 191.968)" fill="#3F7E44"/>
<path d="M394.117 291.968C393.744 291.968 393.451 291.861 393.237 291.648C393.024 291.435 392.917 291.141 392.917 290.768V237.168C392.917 236.795 393.024 236.501 393.237 236.288C393.451 236.075 393.744 235.968 394.117 235.968H406.758C407.131 235.968 407.424 236.075 407.637 236.288C407.851 236.501 407.957 236.795 407.957 237.168V278.608C407.957 278.928 408.118 279.088 408.438 279.088H424.038C424.411 279.088 424.704 279.195 424.918 279.408C425.131 279.621 425.237 279.915 425.237 280.288V290.768C425.237 291.141 425.131 291.435 424.918 291.648C424.704 291.861 424.411 291.968 424.038 291.968H394.117Z" fill="#FD9D24"/>
<path d="M390.971 247.648C390.971 248.021 390.864 248.315 390.651 248.528C390.437 248.741 390.144 248.848 389.771 248.848H374.491C374.171 248.848 374.011 249.008 374.011 249.328V257.008C374.011 257.328 374.171 257.488 374.491 257.488H382.411C382.784 257.488 383.077 257.595 383.291 257.808C383.504 258.021 383.611 258.315 383.611 258.688V269.168C383.611 269.541 383.504 269.835 383.291 270.048C383.077 270.261 382.784 270.368 382.411 270.368H374.491C374.171 270.368 374.011 270.528 374.011 270.848V278.608C374.011 278.928 374.171 279.088 374.491 279.088H389.771C390.144 279.088 390.437 279.195 390.651 279.408C390.864 279.621 390.971 279.915 390.971 280.288V290.768C390.971 291.141 390.864 291.435 390.651 291.648C390.437 291.861 390.144 291.968 389.771 291.968H360.171C359.797 291.968 359.504 291.861 359.291 291.648C359.077 291.435 358.971 291.141 358.971 290.768V237.168C358.971 236.795 359.077 236.501 359.291 236.288C359.504 236.075 359.797 235.968 360.171 235.968H389.771C390.144 235.968 390.437 236.075 390.651 236.288C390.864 236.501 390.971 236.795 390.971 237.168V247.648Z" fill="#FD9D24"/>
<path d="M342.552 291.968C342.178 291.968 341.885 291.861 341.672 291.648C341.458 291.435 341.352 291.141 341.352 290.768V237.168C341.352 236.795 341.458 236.501 341.672 236.288C341.885 236.075 342.178 235.968 342.552 235.968H355.192C355.565 235.968 355.858 236.075 356.072 236.288C356.285 236.501 356.392 236.795 356.392 237.168V290.768C356.392 291.141 356.285 291.435 356.072 291.648C355.858 291.861 355.565 291.968 355.192 291.968H342.552Z" fill="#FD9D24"/>
<path d="M338.23 235.968C338.603 235.968 338.897 236.075 339.11 236.288C339.323 236.501 339.43 236.795 339.43 237.168V247.648C339.43 248.021 339.323 248.315 339.11 248.528C338.897 248.741 338.603 248.848 338.23 248.848H328.79C328.47 248.848 328.31 249.008 328.31 249.328V290.768C328.31 291.141 328.203 291.435 327.99 291.648C327.777 291.861 327.483 291.968 327.11 291.968H314.47C314.097 291.968 313.803 291.861 313.59 291.648C313.377 291.435 313.27 291.141 313.27 290.768V249.328C313.27 249.008 313.11 248.848 312.79 248.848H303.59C303.217 248.848 302.923 248.741 302.71 248.528C302.497 248.315 302.39 248.021 302.39 247.648V237.168C302.39 236.795 302.497 236.501 302.71 236.288C302.923 236.075 303.217 235.968 303.59 235.968H338.23Z" fill="#FD9D24"/>
<path d="M285.564 237.168C285.564 236.795 285.671 236.501 285.884 236.288C286.098 236.075 286.391 235.968 286.764 235.968H299.244C299.618 235.968 299.911 236.075 300.124 236.288C300.338 236.501 300.444 236.795 300.444 237.168V290.768C300.444 291.141 300.338 291.435 300.124 291.648C299.911 291.861 299.618 291.968 299.244 291.968H285.004C284.311 291.968 283.884 291.621 283.724 290.928L277.644 266.688C277.591 266.528 277.484 266.448 277.324 266.448C277.164 266.448 277.084 266.555 277.084 266.768L277.244 290.768C277.244 291.141 277.138 291.435 276.924 291.648C276.711 291.861 276.418 291.968 276.044 291.968H263.564C263.191 291.968 262.898 291.861 262.684 291.648C262.471 291.435 262.364 291.141 262.364 290.768V237.168C262.364 236.795 262.471 236.501 262.684 236.288C262.898 236.075 263.191 235.968 263.564 235.968H277.644C278.338 235.968 278.764 236.315 278.924 237.008L285.084 261.328C285.138 261.541 285.244 261.648 285.404 261.648C285.564 261.648 285.644 261.541 285.644 261.328L285.564 237.168Z" fill="#FD9D24"/>
<path d="M260.417 247.648C260.417 248.021 260.311 248.315 260.097 248.528C259.884 248.741 259.591 248.848 259.217 248.848H243.937C243.617 248.848 243.457 249.008 243.457 249.328V257.008C243.457 257.328 243.617 257.488 243.937 257.488H251.857C252.231 257.488 252.524 257.595 252.737 257.808C252.951 258.021 253.057 258.315 253.057 258.688V269.168C253.057 269.541 252.951 269.835 252.737 270.048C252.524 270.261 252.231 270.368 251.857 270.368H243.937C243.617 270.368 243.457 270.528 243.457 270.848V278.608C243.457 278.928 243.617 279.088 243.937 279.088H259.217C259.591 279.088 259.884 279.195 260.097 279.408C260.311 279.621 260.417 279.915 260.417 280.288V290.768C260.417 291.141 260.311 291.435 260.097 291.648C259.884 291.861 259.591 291.968 259.217 291.968H229.617C229.244 291.968 228.951 291.861 228.737 291.648C228.524 291.435 228.417 291.141 228.417 290.768V237.168C228.417 236.795 228.524 236.501 228.737 236.288C228.951 236.075 229.244 235.968 229.617 235.968H259.217C259.591 235.968 259.884 236.075 260.097 236.288C260.311 236.501 260.417 236.795 260.417 237.168V247.648Z" fill="#FD9D24"/>
<path d="M211.105 236.848C211.425 236.261 211.905 235.968 212.545 235.968H225.025C225.398 235.968 225.692 236.075 225.905 236.288C226.118 236.501 226.225 236.795 226.225 237.168V290.768C226.225 291.141 226.118 291.435 225.905 291.648C225.692 291.861 225.398 291.968 225.025 291.968H212.385C212.012 291.968 211.718 291.861 211.505 291.648C211.292 291.435 211.185 291.141 211.185 290.768V258.208C211.185 257.995 211.105 257.861 210.945 257.808C210.838 257.755 210.732 257.835 210.625 258.048L206.065 265.728L205.265 267.168H205.185L199.905 258.048C199.798 257.835 199.665 257.755 199.505 257.808C199.398 257.808 199.345 257.941 199.345 258.208V290.768C199.345 291.141 199.238 291.435 199.025 291.648C198.812 291.861 198.518 291.968 198.145 291.968H185.505C185.132 291.968 184.838 291.861 184.625 291.648C184.412 291.435 184.305 291.141 184.305 290.768V237.168C184.305 236.795 184.412 236.501 184.625 236.288C184.838 236.075 185.132 235.968 185.505 235.968H197.985C198.678 235.968 199.158 236.261 199.425 236.848L205.025 247.088C205.132 247.248 205.238 247.355 205.345 247.408C205.505 247.408 205.612 247.301 205.665 247.088L211.105 236.848Z" fill="#FD9D24"/>
<path d="M182.758 247.648C182.758 248.021 182.651 248.315 182.438 248.528C182.225 248.741 181.931 248.848 181.558 248.848H166.278C165.958 248.848 165.798 249.008 165.798 249.328V257.008C165.798 257.328 165.958 257.488 166.278 257.488H174.198C174.571 257.488 174.865 257.595 175.078 257.808C175.291 258.021 175.398 258.315 175.398 258.688V269.168C175.398 269.541 175.291 269.835 175.078 270.048C174.865 270.261 174.571 270.368 174.198 270.368H166.278C165.958 270.368 165.798 270.528 165.798 270.848V278.608C165.798 278.928 165.958 279.088 166.278 279.088H181.558C181.931 279.088 182.225 279.195 182.438 279.408C182.651 279.621 182.758 279.915 182.758 280.288V290.768C182.758 291.141 182.651 291.435 182.438 291.648C182.225 291.861 181.931 291.968 181.558 291.968H151.958C151.585 291.968 151.291 291.861 151.078 291.648C150.865 291.435 150.758 291.141 150.758 290.768V237.168C150.758 236.795 150.865 236.501 151.078 236.288C151.291 236.075 151.585 235.968 151.958 235.968H181.558C181.931 235.968 182.225 236.075 182.438 236.288C182.651 236.501 182.758 236.795 182.758 237.168V247.648Z" fill="#FD9D24"/>
<path d="M133.293 237.168C133.293 236.795 133.399 236.501 133.613 236.288C133.826 236.075 134.119 235.968 134.493 235.968H146.973C147.346 235.968 147.639 236.075 147.853 236.288C148.066 236.501 148.173 236.795 148.173 237.168V290.768C148.173 291.141 148.066 291.435 147.853 291.648C147.639 291.861 147.346 291.968 146.973 291.968H132.733C132.039 291.968 131.613 291.621 131.453 290.928L125.373 266.688C125.319 266.528 125.213 266.448 125.053 266.448C124.893 266.448 124.813 266.555 124.813 266.768L124.973 290.768C124.973 291.141 124.866 291.435 124.653 291.648C124.439 291.861 124.146 291.968 123.773 291.968H111.293C110.919 291.968 110.626 291.861 110.413 291.648C110.199 291.435 110.093 291.141 110.093 290.768V237.168C110.093 236.795 110.199 236.501 110.413 236.288C110.626 236.075 110.919 235.968 111.293 235.968H125.373C126.066 235.968 126.493 236.315 126.653 237.008L132.813 261.328C132.866 261.541 132.973 261.648 133.133 261.648C133.293 261.648 133.373 261.541 133.373 261.328L133.293 237.168Z" fill="#FD9D24"/>
<path d="M108.146 247.648C108.146 248.021 108.039 248.315 107.826 248.528C107.612 248.741 107.319 248.848 106.946 248.848H91.6655C91.3455 248.848 91.1855 249.008 91.1855 249.328V257.008C91.1855 257.328 91.3455 257.488 91.6655 257.488H99.5855C99.9588 257.488 100.252 257.595 100.466 257.808C100.679 258.021 100.786 258.315 100.786 258.688V269.168C100.786 269.541 100.679 269.835 100.466 270.048C100.252 270.261 99.9588 270.368 99.5855 270.368H91.6655C91.3455 270.368 91.1855 270.528 91.1855 270.848V278.608C91.1855 278.928 91.3455 279.088 91.6655 279.088H106.946C107.319 279.088 107.612 279.195 107.826 279.408C108.039 279.621 108.146 279.915 108.146 280.288V290.768C108.146 291.141 108.039 291.435 107.826 291.648C107.612 291.861 107.319 291.968 106.946 291.968H77.3455C76.9722 291.968 76.6788 291.861 76.4655 291.648C76.2522 291.435 76.1455 291.141 76.1455 290.768V237.168C76.1455 236.795 76.2522 236.501 76.4655 236.288C76.6788 236.075 76.9722 235.968 77.3455 235.968H106.946C107.319 235.968 107.612 236.075 107.826 236.288C108.039 236.501 108.146 236.795 108.146 237.168V247.648ZM87.0255 231.248C86.3322 231.248 85.9855 231.008 85.9855 230.528C85.9855 230.261 86.0655 230.021 86.2255 229.808L90.6255 222.368C90.9455 221.835 91.4255 221.568 92.0655 221.568H101.826C102.146 221.568 102.386 221.648 102.546 221.808C102.759 221.915 102.866 222.075 102.866 222.288C102.866 222.555 102.759 222.795 102.546 223.008L96.3855 230.528C96.0122 231.008 95.5322 231.248 94.9455 231.248H87.0255Z" fill="#FD9D24"/>
<path d="M47.707 291.968C46.9603 291.968 46.507 291.621 46.347 290.928L35.147 237.248V236.928C35.147 236.288 35.5203 235.968 36.267 235.968H50.027C50.827 235.968 51.2536 236.341 51.307 237.088L54.907 265.408C54.907 265.568 54.987 265.648 55.147 265.648C55.307 265.648 55.387 265.568 55.387 265.408L58.667 237.088C58.7203 236.341 59.147 235.968 59.947 235.968H73.307C74.2136 235.968 74.587 236.395 74.427 237.248L63.067 290.928C62.907 291.621 62.4536 291.968 61.707 291.968H47.707Z" fill="#FD9D24"/>
<path d="M34.0801 247.648C34.0801 248.021 33.9734 248.315 33.7601 248.528C33.5467 248.741 33.2534 248.848 32.8801 248.848H17.6001C17.2801 248.848 17.1201 249.008 17.1201 249.328V257.008C17.1201 257.328 17.2801 257.488 17.6001 257.488H25.5201C25.8934 257.488 26.1867 257.595 26.4001 257.808C26.6134 258.021 26.7201 258.315 26.7201 258.688V269.168C26.7201 269.541 26.6134 269.835 26.4001 270.048C26.1867 270.261 25.8934 270.368 25.5201 270.368H17.6001C17.2801 270.368 17.1201 270.528 17.1201 270.848V278.608C17.1201 278.928 17.2801 279.088 17.6001 279.088H32.8801C33.2534 279.088 33.5467 279.195 33.7601 279.408C33.9734 279.621 34.0801 279.915 34.0801 280.288V290.768C34.0801 291.141 33.9734 291.435 33.7601 291.648C33.5467 291.861 33.2534 291.968 32.8801 291.968H3.28008C2.90675 291.968 2.61341 291.861 2.40008 291.648C2.18674 291.435 2.08008 291.141 2.08008 290.768V237.168C2.08008 236.795 2.18674 236.501 2.40008 236.288C2.61341 236.075 2.90675 235.968 3.28008 235.968H32.8801C33.2534 235.968 33.5467 236.075 33.7601 236.288C33.9734 236.501 34.0801 236.795 34.0801 237.168V247.648ZM12.9601 231.248C12.2667 231.248 11.9201 231.008 11.9201 230.528C11.9201 230.261 12.0001 230.021 12.1601 229.808L16.5601 222.368C16.8801 221.835 17.3601 221.568 18.0001 221.568H27.7601C28.0801 221.568 28.3201 221.648 28.4801 221.808C28.6934 221.915 28.8001 222.075 28.8001 222.288C28.8001 222.555 28.6934 222.795 28.4801 223.008L22.3201 230.528C21.9467 231.008 21.4667 231.248 20.8801 231.248H12.9601Z" fill="#FD9D24"/>
</svg>
